<svg width="74" height="23" viewBox="0 0 74 23" fill="none" xmlns="http://www.w3.org/2000/svg">
<path d="M41.0916 16.28C40.7265 15.7152 40.2339 15.2469 39.6547 14.9139C40.093 14.6168 40.4618 14.2257 40.7349 13.7683C41.0051 13.3133 41.1405 12.7572 41.1411 12.1001C41.148 11.5607 41.0398 11.0262 40.8238 10.5332C40.6187 10.071 40.3182 9.65872 39.9426 9.32433C39.5477 8.97928 39.0896 8.71639 38.5946 8.55065C38.0421 8.36451 37.463 8.27275 36.8808 8.27912H30.0457V22.3475H37.2769C37.8803 22.3552 38.4804 22.2564 39.0504 22.0556C39.5568 21.8783 40.0241 21.6022 40.4258 21.2428C40.8115 20.8909 41.1161 20.4572 41.3181 19.9726C41.5349 19.4518 41.6429 18.891 41.6353 18.3257C41.6359 17.5242 41.4547 16.8422 41.0916 16.28ZM32.6214 10.4932H36.6827C37.2769 10.4932 37.7394 10.6373 38.0701 10.9256C38.4008 11.2139 38.5659 11.6391 38.5653 12.2014C38.5653 12.7631 38.4002 13.2051 38.0701 13.5275C37.74 13.8498 37.2775 14.0104 36.6827 14.0091H32.6214V10.4932ZM38.5946 19.6062C38.2847 19.9614 37.7794 20.139 37.0789 20.139H32.6214V16.2195H37.0789C37.766 16.2195 38.2682 16.417 38.5855 16.8119C38.9039 17.2125 39.0721 17.7146 39.0605 18.229C39.0605 18.7919 38.9052 19.2491 38.5946 19.6006V19.6062Z" fill="#F4F4F4"/>
<path d="M24.9529 22.2265C25.6282 21.9701 26.245 21.5772 26.7658 21.0716C27.2607 20.583 27.6487 19.9944 27.9047 19.3439C28.1716 18.67 28.3064 17.9499 28.3017 17.2237V8.28271H25.7296V17.2237C25.7362 17.6857 25.6575 18.1449 25.4976 18.5776C25.3578 18.9555 25.1388 19.2982 24.8557 19.5819C24.57 19.8622 24.2291 20.078 23.8553 20.2152C23.0146 20.509 22.101 20.509 21.2603 20.2152C20.8862 20.078 20.545 19.8622 20.2589 19.5819C19.9764 19.2977 19.7575 18.9552 19.617 18.5776C19.4589 18.1436 19.3817 17.6835 19.3896 17.2209V8.28271H16.8102V17.2237C16.8056 17.9498 16.9401 18.6698 17.2063 19.3439C17.4623 19.9944 17.8503 20.583 18.3452 21.0716C18.8639 21.5755 19.4773 21.9683 20.1489 22.2265C21.7021 22.7894 23.3997 22.7894 24.9529 22.2265Z" fill="#F4F4F4"/>
<path d="M7.677 22.3474L10.8277 16.2194C11.0111 15.8716 11.1759 15.5434 11.322 15.2346C11.4681 14.9259 11.6069 14.6212 11.7383 14.3205C11.8703 14.0193 11.9993 13.7111 12.1253 13.3962C12.2512 13.0813 12.3866 12.7499 12.5315 12.4022H12.6103C12.5834 12.7741 12.5572 13.1256 12.5315 13.4567C12.504 13.7849 12.4847 14.1029 12.4719 14.4107C12.459 14.7185 12.4489 15.0375 12.4416 15.3657C12.4343 15.694 12.4315 16.0455 12.4315 16.4202V22.3474H15.0073V8.28271H12.1353L9.44035 13.6268C9.25695 13.9895 9.08853 14.3246 8.93509 14.6321C8.78287 14.9399 8.63799 15.2421 8.49953 15.5359C8.36106 15.8298 8.22443 16.132 8.09331 16.4407C7.96218 16.7494 7.81821 17.0768 7.677 17.4245C7.5315 17.0774 7.39274 16.7488 7.26069 16.4388C7.12865 16.1289 6.99324 15.8273 6.85447 15.5341C6.71601 15.2402 6.57021 14.938 6.41891 14.6302C6.2676 14.3224 6.09888 13.9876 5.91365 13.625L3.21865 8.28271H0.34668V22.3474H2.92155V16.4202C2.92155 16.0483 2.9185 15.6968 2.91238 15.3657C2.90627 15.0347 2.89618 14.7164 2.88212 14.4107C2.86929 14.1008 2.84942 13.7828 2.82252 13.4567C2.79562 13.1306 2.76933 12.7791 2.74366 12.4022H2.82252C2.95456 12.7499 3.08661 13.0813 3.21865 13.3962C3.3507 13.7111 3.48305 14.0193 3.6157 14.3205C3.74683 14.6218 3.88621 14.9268 4.03109 15.2346C4.17598 15.5424 4.34195 15.8716 4.52626 16.2194L7.677 22.3474Z" fill="#F4F4F4"/>
<path d="M45.8756 8.28271H43.2998V22.3474H45.8756V8.28271Z" fill="#F4F4F4"/>
<path d="M70.6156 14.4154C72.2934 14.4154 73.6535 13.0361 73.6535 11.3347C73.6535 9.63321 72.2934 8.25391 70.6156 8.25391C68.9378 8.25391 67.5776 9.63321 67.5776 11.3347C67.5776 13.0361 68.9378 14.4154 70.6156 14.4154Z" fill="#F4F4F4"/>
<path d="M54.9711 14.4154C56.6489 14.4154 58.009 13.0361 58.009 11.3347C58.009 9.63321 56.6489 8.25391 54.9711 8.25391C53.2932 8.25391 51.9331 9.63321 51.9331 11.3347C51.9331 13.0361 53.2932 14.4154 54.9711 14.4154Z" fill="#F4F4F4"/>
<path d="M62.7938 14.4154C64.4716 14.4154 65.8317 13.0361 65.8317 11.3347C65.8317 9.63321 64.4716 8.25391 62.7938 8.25391C61.116 8.25391 59.7559 9.63321 59.7559 11.3347C59.7559 13.0361 61.116 14.4154 62.7938 14.4154Z" fill="#F4F4F4"/>
<path d="M54.9711 6.51307C56.6489 6.51307 58.009 5.13377 58.009 3.43232C58.009 1.73087 56.6489 0.351562 54.9711 0.351562C53.2932 0.351562 51.9331 1.73087 51.9331 3.43232C51.9331 5.13377 53.2932 6.51307 54.9711 6.51307Z" fill="#F4F4F4"/>
<path d="M62.7938 6.51307C64.4716 6.51307 65.8317 5.13377 65.8317 3.43232C65.8317 1.73087 64.4716 0.351562 62.7938 0.351562C61.116 0.351562 59.7559 1.73087 59.7559 3.43232C59.7559 5.13377 61.116 6.51307 62.7938 6.51307Z" fill="#F4F4F4"/>
<path d="M54.9711 22.3187C56.6489 22.3187 58.009 20.9394 58.009 19.238C58.009 17.5365 56.6489 16.1572 54.9711 16.1572C53.2932 16.1572 51.9331 17.5365 51.9331 19.238C51.9331 20.9394 53.2932 22.3187 54.9711 22.3187Z" fill="#F4F4F4"/>
<path d="M62.7938 22.3187C64.4716 22.3187 65.8317 20.9394 65.8317 19.238C65.8317 17.5365 64.4716 16.1572 62.7938 16.1572C61.116 16.1572 59.7559 17.5365 59.7559 19.238C59.7559 20.9394 61.116 22.3187 62.7938 22.3187Z" fill="#F4F4F4"/>
</svg>
