<svg width="257" height="119" viewBox="0 0 257 119" fill="none" xmlns="http://www.w3.org/2000/svg">
<g clip-path="url(#clip0_214_1129)">
<path d="M16.522 98.579C15.4164 99.0092 14.2399 99.2317 13.0524 99.2351C11.6843 99.2731 10.3262 98.9922 9.08713 98.4149C7.97059 97.9735 6.97848 97.27 6.19578 96.3646C5.34762 95.5024 4.6992 94.4668 4.29576 93.3302C3.86274 92.0903 3.63944 90.7878 3.63489 89.4756C3.61725 88.154 3.87019 86.8427 4.37837 85.621C4.86058 84.4802 5.5306 83.427 6.36101 82.5045C7.18921 81.6132 8.20444 80.9133 9.33498 80.4542C10.4493 79.9498 11.6627 79.6977 12.8872 79.7161C14.0211 79.7204 15.1433 79.9432 16.1916 80.3722C17.0941 80.7086 17.9536 81.149 18.7525 81.6844L20.1569 78.4859C19.1437 77.8936 18.0619 77.4254 16.9351 77.0917C15.5758 76.6481 14.1529 76.4265 12.722 76.4356C10.9917 76.4131 9.27557 76.7483 7.68278 77.4198C6.14615 78.0476 4.76507 78.9989 3.63489 80.2082C2.44553 81.3853 1.54153 82.8156 0.991352 84.3908C0.315113 86.0583 -0.0218186 87.8422 2.10817e-05 89.6396C0.00695031 91.3203 0.314641 92.9865 0.908737 94.5604C1.50144 96.0718 2.36958 97.4618 3.46966 98.661C4.66051 99.8366 6.06114 100.782 7.60016 101.449C10.3413 102.482 13.3237 102.709 16.1916 102.106C17.0815 101.918 17.9426 101.615 18.7525 101.203L20.4873 100.301L19.0003 97.2668C18.2314 97.8032 17.3991 98.2439 16.522 98.579Z" fill="#F4F4F4"/>
<path d="M43.04 87.7533H29.6571V76.6816H26.1875V102.188H29.6571V90.9518H43.04V102.188H46.5096V76.6816H43.04V87.7533Z" fill="#F4F4F4"/>
<path d="M67.9054 90.2137C68.5718 89.4457 69.0773 88.5535 69.3924 87.5893C69.6911 86.634 69.8306 85.6368 69.8055 84.6369C69.8576 83.4533 69.6313 82.274 69.1446 81.1923C68.7029 80.2424 68.0539 79.402 67.2446 78.732C66.3821 78.065 65.4014 77.5643 64.3532 77.2557C63.1771 76.8858 61.952 76.6923 60.7183 76.6816H53.9443V102.187H57.4139V92.8381H61.9575L68.0707 102.27H72.0359L65.5924 92.018C66.4779 91.5774 67.2647 90.9637 67.9054 90.2137ZM61.1314 89.4756H57.4139V79.9621H61.3792C62.1532 79.9311 62.9218 80.1007 63.6097 80.4542C64.2104 80.7197 64.746 81.1114 65.1793 81.6024C65.5651 82.0563 65.847 82.588 66.0054 83.1606C66.162 83.6658 66.2454 84.1904 66.2532 84.7188C66.2522 85.2747 66.1687 85.8274 66.0054 86.3591C65.8416 86.8886 65.5903 87.3875 65.2619 87.8353C64.8179 88.3703 64.2514 88.7921 63.6097 89.0655C62.8262 89.389 61.9782 89.5293 61.1314 89.4756Z" fill="#F4F4F4"/>
<path d="M97.4798 80.2901C95.6557 78.4542 93.3214 77.2003 90.7754 76.689C88.2295 76.1776 85.5877 76.432 83.1883 77.4197C81.6259 78.1251 80.2 79.0965 78.9751 80.2901C77.7983 81.5094 76.8475 82.9253 76.1664 84.4727C74.8482 87.7079 74.8482 91.3251 76.1664 94.5602C76.8475 96.1076 77.7983 97.5236 78.9751 98.7429C80.2067 99.886 81.6333 100.802 83.1883 101.449C84.7831 102.114 86.4978 102.449 88.2275 102.433C89.9839 102.449 91.7255 102.114 93.3493 101.449C96.5032 100.147 99.0219 97.6757 100.371 94.5602C101.396 92.1697 101.668 89.5275 101.152 86.9806C100.636 84.4338 99.3555 82.1015 97.4798 80.2901ZM97.0667 93.2481C96.6043 94.399 95.9322 95.4554 95.0841 96.3645C94.21 97.2397 93.1716 97.9362 92.0275 98.4148C90.8485 98.9525 89.5663 99.2309 88.2688 99.2309C86.9713 99.2309 85.6891 98.9525 84.51 98.4148C83.3913 97.9344 82.3803 97.2374 81.5361 96.3645C80.6522 95.4672 79.951 94.4091 79.4708 93.2481C78.9624 92.0552 78.7093 90.7705 78.7273 89.4755C78.7394 88.1906 78.9626 86.9164 79.3882 85.7029C79.8684 84.5419 80.5696 83.4838 81.4534 82.5864C82.3214 81.6691 83.3715 80.9404 84.5374 80.4463C85.7034 79.9523 86.9598 79.7036 88.2275 79.716C89.509 79.6922 90.7813 79.9353 91.9623 80.4297C93.1433 80.9241 94.2068 81.6588 95.0841 82.5864C95.9145 83.5089 96.5845 84.5621 97.0667 85.7029C97.5662 86.8984 97.819 88.1812 97.8103 89.4755C97.8283 90.7705 97.5751 92.0552 97.0667 93.2481Z" fill="#F4F4F4"/>
<path d="M126.146 95.1343L107.31 75.9434H107.145V102.187H110.615L110.532 83.9806L129.367 103.007H129.533V76.6815H126.063L126.146 95.1343Z" fill="#F4F4F4"/>
<path d="M157.62 80.2902C156.395 79.0966 154.969 78.1251 153.407 77.4197C151.812 76.755 150.097 76.4201 148.368 76.4356C146.611 76.4203 144.87 76.755 143.246 77.4197C141.709 78.1275 140.311 79.0992 139.115 80.2902C137.911 81.4876 136.957 82.9089 136.307 84.4728C134.988 87.7079 134.988 91.3251 136.307 94.5603C136.957 96.1242 137.911 97.5455 139.115 98.743C140.317 99.8849 141.716 100.802 143.246 101.449C144.87 102.114 146.611 102.449 148.368 102.434C150.123 102.44 151.863 102.106 153.489 101.449C155.051 100.823 156.459 99.872 157.62 98.6609C158.838 97.4896 159.82 96.0977 160.511 94.5603C161.83 91.3251 161.83 87.7079 160.511 84.4728C159.801 82.9217 158.822 81.5062 157.62 80.2902ZM157.207 93.2481C156.747 94.4196 156.043 95.4815 155.142 96.3646C154.313 97.2559 153.298 97.9558 152.168 98.4149C150.989 98.9526 149.706 99.2309 148.409 99.2309C147.111 99.2309 145.829 98.9526 144.65 98.4149C143.506 97.9363 142.468 97.2397 141.594 96.3646C140.71 95.4672 140.009 94.4091 139.528 93.2481C139.048 92.0493 138.823 90.7648 138.867 89.4755C138.839 88.1873 139.063 86.906 139.528 85.703C139.978 84.5413 140.655 83.4794 141.52 82.5786C142.384 81.6778 143.42 80.9557 144.568 80.4541C145.774 79.9666 147.065 79.716 148.368 79.7161C149.645 79.7071 150.91 79.9583 152.085 80.4541C153.256 80.9213 154.302 81.6511 155.142 82.5865C156.025 83.4838 156.727 84.542 157.207 85.703C157.706 86.8985 157.959 88.1813 157.95 89.4755C157.968 90.7706 157.715 92.0553 157.207 93.2481Z" fill="#F4F4F4"/>
<path d="M170.672 76.6816H167.285V102.188H183.725V98.907H170.672V76.6816Z" fill="#F4F4F4"/>
<path d="M192.729 91.0338H204.543V87.7533H192.729V79.9621H206.03V76.6816H189.342V102.188H206.525V98.907H192.729V91.0338Z" fill="#F4F4F4"/>
<path d="M231.473 95.1343L212.638 75.9434H212.473V102.187H215.943L215.86 83.9806L234.695 103.007H234.778V76.6815H231.391L231.473 95.1343Z" fill="#F4F4F4"/>
<path d="M256.504 92.1818C256.184 91.3884 255.674 90.6845 255.017 90.1315C254.399 89.5489 253.705 89.0523 252.952 88.6552C252.126 88.3272 251.383 87.9172 250.556 87.6711L247.913 86.5229C247.141 86.1945 246.439 85.7211 245.848 85.1287C245.573 84.8638 245.357 84.5443 245.214 84.191C245.072 83.8377 245.006 83.4586 245.022 83.0784C245.005 82.5866 245.109 82.0983 245.325 81.6553C245.541 81.2124 245.862 80.8283 246.261 80.536C247.241 79.901 248.396 79.5855 249.565 79.6339C250.603 79.6432 251.634 79.8091 252.622 80.126C253.618 80.4231 254.585 80.8073 255.513 81.2741L256.752 78.6498C255.714 78.0293 254.604 77.5337 253.448 77.1735C252.027 76.7594 250.55 76.5658 249.069 76.5995C247.72 76.5775 246.386 76.8874 245.187 77.5016C244.084 78.0435 243.144 78.8637 242.461 79.8799C241.777 80.9283 241.432 82.1583 241.469 83.4065C241.452 84.3761 241.68 85.3345 242.13 86.1949C242.593 86.9433 243.179 87.6088 243.865 88.1632C244.547 88.6956 245.297 89.1368 246.096 89.4754C246.892 89.8734 247.721 90.2027 248.574 90.4595C249.429 90.7766 250.258 91.1605 251.052 91.6077C251.743 91.9866 252.359 92.4868 252.87 93.0839C253.306 93.71 253.537 94.4548 253.53 95.2162C253.568 95.6605 253.515 96.1079 253.373 96.5309C253.231 96.9539 253.003 97.3438 252.704 97.6766C252.201 98.2753 251.545 98.7286 250.804 98.9888C250.047 99.3093 249.232 99.4766 248.409 99.4809C247.601 99.452 246.798 99.3422 246.013 99.1529C245.215 98.924 244.441 98.622 243.7 98.2507C243.028 97.9354 242.391 97.5505 241.8 97.1026L240.23 99.809C240.974 100.219 241.717 100.711 242.626 101.121C243.524 101.547 244.466 101.877 245.435 102.105C246.493 102.336 247.573 102.446 248.656 102.433C250.221 102.493 251.779 102.184 253.2 101.531C254.383 100.929 255.381 100.022 256.091 98.9068C256.766 97.7939 257.109 96.5146 257.083 95.2162C257.13 94.1739 256.932 93.1351 256.504 92.1818Z" fill="#F4F4F4"/>
<path d="M87.732 110.225C87.2138 109.991 86.6485 109.879 86.0798 109.897H83.6841V118.754H84.8406V115.474H86.1624C86.6424 115.487 87.1202 115.403 87.5667 115.228C87.9148 115.078 88.2252 114.854 88.4755 114.572C88.7182 114.32 88.8893 114.008 88.9711 113.669C89.105 113.33 89.1614 112.966 89.1363 112.603C89.1653 112.09 89.0509 111.579 88.8059 111.127C88.5509 110.723 88.1756 110.408 87.732 110.225ZM87.8972 113.177C87.8165 113.359 87.7046 113.525 87.5667 113.669C87.4841 113.915 87.2363 113.997 87.0711 114.161L86.1624 114.326H84.8406V110.963H86.245L87.0711 111.127C87.2363 111.291 87.4841 111.373 87.5667 111.537C87.7244 111.697 87.8382 111.895 87.8972 112.111C87.8972 112.275 87.9798 112.439 87.9798 112.603C87.9798 112.767 87.8972 112.931 87.8972 113.177Z" fill="#F4F4F4"/>
<path d="M95.9104 114.572C96.1069 114.289 96.273 113.986 96.406 113.669C96.501 113.321 96.5564 112.964 96.5713 112.603C96.5771 112.207 96.4923 111.814 96.3234 111.455C96.1516 111.122 95.9286 110.818 95.6625 110.553C95.3683 110.325 95.0313 110.158 94.6712 110.061C94.2459 109.92 93.7966 109.864 93.3495 109.897H91.0364V118.754H92.1929V115.474H93.7625L95.9104 118.754H97.3148L95.0843 115.146L95.9104 114.572ZM93.5147 114.325H92.1929V110.963H93.5973L94.4234 111.127L94.9191 111.537C95.0598 111.709 95.1714 111.903 95.2495 112.111C95.2495 112.275 95.3321 112.439 95.3321 112.685C95.3321 112.931 95.2495 113.013 95.2495 113.177C95.1905 113.394 95.0768 113.591 94.9191 113.751C94.7932 113.929 94.6222 114.071 94.4234 114.161L93.5147 114.325Z" fill="#F4F4F4"/>
<path d="M106.154 111.127C105.726 110.707 105.221 110.373 104.667 110.143C104.13 109.871 103.535 109.731 102.932 109.732C102.331 109.742 101.739 109.882 101.197 110.143C100.643 110.373 100.138 110.707 99.7104 111.127C99.3077 111.536 98.9731 112.007 98.719 112.521C98.4833 113.093 98.3707 113.707 98.3886 114.325C98.361 114.917 98.4742 115.507 98.719 116.047C98.9475 116.6 99.2842 117.102 99.7096 117.524C100.135 117.947 100.641 118.281 101.197 118.508C101.756 118.703 102.341 118.814 102.932 118.836C103.551 118.814 104.163 118.703 104.75 118.508C105.267 118.256 105.741 117.923 106.154 117.524C106.576 117.099 106.913 116.598 107.145 116.047C107.408 115.51 107.549 114.922 107.558 114.325C107.55 113.702 107.409 113.087 107.145 112.521C106.891 112.007 106.557 111.536 106.154 111.127ZM105.989 115.637C105.818 116.021 105.595 116.379 105.328 116.703C105.026 117.022 104.66 117.273 104.254 117.442C103.834 117.611 103.385 117.694 102.932 117.688C102.506 117.692 102.084 117.608 101.693 117.442C101.275 117.295 100.904 117.04 100.619 116.703C100.299 116.404 100.045 116.041 99.8756 115.637C99.7133 115.219 99.6293 114.774 99.6277 114.325C99.6221 113.448 99.9461 112.6 100.536 111.947C100.838 111.629 101.204 111.377 101.61 111.209C102.015 110.987 102.47 110.873 102.932 110.881C103.385 110.874 103.834 110.958 104.254 111.127L105.328 111.865C105.596 112.218 105.818 112.604 105.989 113.013C106.224 113.409 106.339 113.865 106.319 114.325C106.326 114.784 106.212 115.236 105.989 115.637Z" fill="#F4F4F4"/>
<path d="M115.737 111.291C115.291 110.871 114.791 110.513 114.25 110.225C113.505 109.978 112.721 109.867 111.937 109.897H109.541V118.754H112.432C112.997 118.732 113.555 118.621 114.085 118.426C114.625 118.253 115.109 117.942 115.489 117.524C115.909 117.16 116.246 116.713 116.48 116.212C116.716 115.64 116.829 115.025 116.811 114.407C116.81 113.852 116.726 113.299 116.563 112.767C116.352 112.242 116.074 111.746 115.737 111.291ZM115.324 115.72C115.174 116.111 114.917 116.452 114.58 116.704C114.288 117.014 113.917 117.24 113.506 117.36C113.087 117.529 112.637 117.612 112.185 117.606H110.698V110.963H112.267C112.692 110.965 113.113 111.049 113.506 111.209C113.909 111.347 114.275 111.571 114.58 111.865C114.917 112.117 115.174 112.458 115.324 112.849C115.501 113.321 115.585 113.822 115.572 114.325C115.576 114.801 115.492 115.274 115.324 115.72Z" fill="#F4F4F4"/>
<path d="M124.246 115.555C124.28 115.94 124.162 116.323 123.915 116.621C123.755 116.941 123.494 117.2 123.172 117.36C122.832 117.59 122.426 117.706 122.015 117.688C121.631 117.694 121.255 117.579 120.941 117.36C120.619 117.2 120.358 116.941 120.198 116.621C119.99 116.303 119.876 115.934 119.867 115.555V109.896H118.711V115.637C118.698 116.211 118.84 116.778 119.124 117.278C119.429 117.761 119.856 118.157 120.363 118.426C120.875 118.685 121.44 118.825 122.015 118.836C122.618 118.838 123.213 118.697 123.75 118.426C124.257 118.157 124.684 117.761 124.989 117.278C125.273 116.778 125.415 116.211 125.402 115.637V109.896H124.246V115.555Z" fill="#F4F4F4"/>
<path d="M133.002 117.442C132.64 117.61 132.245 117.694 131.846 117.688C131.366 117.693 130.89 117.609 130.441 117.442C130.047 117.294 129.704 117.038 129.45 116.704C129.153 116.401 128.928 116.037 128.789 115.638C128.627 115.219 128.543 114.774 128.541 114.326C128.537 113.85 128.621 113.377 128.789 112.931C128.959 112.528 129.212 112.165 129.533 111.865C129.786 111.531 130.13 111.275 130.524 111.127C130.917 110.967 131.338 110.883 131.763 110.881C132.162 110.875 132.558 110.959 132.92 111.127L133.828 111.619L134.324 110.471L133.167 109.979C132.692 109.803 132.187 109.72 131.681 109.733C131.079 109.742 130.487 109.882 129.946 110.143C129.406 110.316 128.921 110.627 128.541 111.045C128.117 111.452 127.804 111.96 127.633 112.521C127.397 113.093 127.284 113.708 127.302 114.326C127.275 114.917 127.388 115.507 127.633 116.048C127.806 116.59 128.087 117.091 128.459 117.524C128.89 117.919 129.395 118.225 129.946 118.426C130.513 118.696 131.134 118.836 131.763 118.836L132.92 118.672L133.828 118.426L134.407 118.098L133.911 117.032C133.642 117.233 133.332 117.373 133.002 117.442Z" fill="#F4F4F4"/>
<path d="M135.728 110.963H138.041V118.672H139.281V110.963H141.676V109.814H135.728V110.963Z" fill="#F4F4F4"/>
<path d="M144.733 109.814H143.576V118.68H144.733V109.814Z" fill="#F4F4F4"/>
<path d="M154.563 111.127C154.136 110.707 153.631 110.373 153.076 110.143C152.539 109.871 151.944 109.731 151.342 109.732C150.74 109.742 150.148 109.882 149.607 110.143C149.052 110.373 148.548 110.707 148.12 111.127C147.717 111.536 147.383 112.007 147.128 112.521C146.893 113.093 146.78 113.707 146.798 114.325C146.77 114.917 146.884 115.507 147.128 116.047C147.357 116.6 147.694 117.102 148.119 117.524C148.544 117.947 149.05 118.281 149.607 118.508C150.165 118.703 150.75 118.814 151.342 118.836C151.96 118.814 152.572 118.703 153.159 118.508C153.677 118.256 154.151 117.923 154.563 117.524C154.986 117.099 155.322 116.598 155.555 116.047C155.817 115.51 155.958 114.922 155.968 114.325C155.96 113.702 155.819 113.087 155.555 112.521C155.301 112.007 154.966 111.536 154.563 111.127ZM154.398 115.637C154.227 116.021 154.005 116.379 153.737 116.703C153.435 117.022 153.069 117.273 152.663 117.442C152.244 117.611 151.794 117.694 151.342 117.688C150.916 117.692 150.494 117.608 150.102 117.442C149.684 117.295 149.314 117.04 149.028 116.703C148.708 116.404 148.455 116.041 148.285 115.637C148.123 115.219 148.039 114.774 148.037 114.325C148.031 113.448 148.355 112.6 148.946 111.947C149.248 111.629 149.614 111.377 150.02 111.209C150.424 110.987 150.88 110.873 151.342 110.881C151.794 110.874 152.244 110.958 152.663 111.127L153.737 111.865C154.005 112.218 154.228 112.604 154.398 113.013C154.634 113.409 154.749 113.865 154.729 114.325C154.736 114.784 154.622 115.236 154.398 115.637Z" fill="#F4F4F4"/>
<path d="M164.477 116.293L157.951 109.568H157.868V118.672H159.107V112.357L165.633 119H165.716V109.814H164.477V116.293Z" fill="#F4F4F4"/>
<path d="M173.233 115.228C173.127 114.947 172.957 114.695 172.738 114.489L171.994 113.997L171.168 113.669L170.26 113.259C169.967 113.175 169.707 113.003 169.516 112.767C169.433 112.68 169.368 112.577 169.325 112.464C169.283 112.351 169.263 112.231 169.268 112.111C169.265 111.94 169.3 111.77 169.372 111.614C169.443 111.457 169.549 111.319 169.681 111.209C170.015 110.966 170.425 110.85 170.838 110.881L171.912 111.045L172.903 111.455L173.316 110.553C172.98 110.293 172.581 110.123 172.16 110.061C171.684 109.885 171.18 109.802 170.673 109.815C170.183 109.797 169.698 109.91 169.268 110.143C168.91 110.348 168.6 110.628 168.359 110.963C168.115 111.325 167.999 111.758 168.029 112.193C168.034 112.536 168.119 112.873 168.277 113.177C168.424 113.432 168.62 113.655 168.855 113.833L169.599 114.325L170.507 114.654C170.805 114.739 171.085 114.878 171.333 115.064C171.586 115.18 171.811 115.347 171.994 115.556C172.15 115.771 172.237 116.028 172.242 116.294C172.255 116.447 172.232 116.6 172.175 116.743C172.117 116.885 172.027 117.012 171.912 117.114C171.75 117.344 171.518 117.516 171.251 117.606L170.425 117.77H169.599L168.773 117.442L168.112 117.032L167.616 117.934L168.442 118.426C168.749 118.596 169.085 118.707 169.433 118.754L170.507 118.918C171.047 118.914 171.581 118.802 172.077 118.59C172.462 118.355 172.799 118.049 173.068 117.688C173.329 117.298 173.472 116.843 173.481 116.376C173.5 115.978 173.415 115.583 173.233 115.228Z" fill="#F4F4F4"/>
<path d="M143.576 10.9898L166.872 14.1062V27.8023L143.576 30.8367V10.9898ZM142.255 6.7251C141.51 6.7251 140.795 7.01889 140.268 7.54182C139.742 8.06475 139.446 8.77395 139.446 9.51349V32.313C139.435 32.686 139.499 33.0574 139.635 33.4053C139.772 33.7531 139.977 34.0702 140.239 34.3379C140.501 34.6056 140.814 34.8183 141.16 34.9636C141.507 35.1088 141.879 35.1836 142.255 35.1834H142.668L168.525 31.7389C169.204 31.6773 169.835 31.3652 170.294 30.8642C170.753 30.3632 171.006 29.7096 171.003 29.0325V12.958C171.008 12.272 170.757 11.6082 170.3 11.0938C169.843 10.5793 169.211 10.2503 168.525 10.1696L142.668 6.7251H142.255Z" fill="#F4F4F4"/>
<path d="M129.285 0H128.872L88.558 5.33081C87.8717 5.4115 87.2395 5.74055 86.7822 6.255C86.325 6.76944 86.0749 7.43319 86.0797 8.11925V33.6251C86.0922 34.3062 86.3484 34.9607 86.8025 35.4716C87.2565 35.9824 87.8787 36.3163 88.558 36.4135L94.8363 37.2336C94.9046 37.2494 94.9759 37.2475 95.0433 37.2284C95.1107 37.2092 95.1721 37.1734 95.2217 37.1241C95.2713 37.0749 95.3074 37.014 95.3267 36.947C95.346 36.8801 95.3478 36.8094 95.332 36.7415V33.5431C95.3271 33.439 95.2937 33.3382 95.2355 33.2516C95.1773 33.1649 95.0964 33.0955 95.0015 33.051L90.2102 32.4769V9.26739L127.963 4.34665V37.5617L109.789 35.1013C109.72 35.0856 109.649 35.0874 109.582 35.1065C109.514 35.1257 109.453 35.1616 109.403 35.2108C109.354 35.26 109.318 35.321 109.298 35.3879C109.279 35.4548 109.277 35.5256 109.293 35.5934V38.7919C109.298 38.8959 109.331 38.9967 109.39 39.0834C109.448 39.1701 109.529 39.2394 109.624 39.284L128.872 41.8263H129.285C130.03 41.8263 130.744 41.5325 131.271 41.0096C131.798 40.4867 132.093 39.7774 132.093 39.0379V2.87043C132.094 2.12315 131.801 1.40519 131.276 0.869179C130.752 0.333165 130.037 0.021351 129.285 0Z" fill="#F4F4F4"/>
<path d="M108.385 49.9458C108.385 49.9458 108.302 49.6177 107.724 49.6997H107.311C107.042 49.5224 106.839 49.2634 106.732 48.9616C106.567 48.5725 106.482 48.154 106.485 47.7315C106.485 46.7473 106.319 43.3028 106.319 43.3028C106.319 43.3028 106.319 43.1387 105.989 43.1387V37.7259L106.237 35.7576V32.8052C106.282 32.1208 106.255 31.4335 106.154 30.7549L105.658 28.6226V28.0485L105.989 27.8844C105.989 27.8844 106.154 27.8024 106.071 27.5564C105.989 27.3103 105.245 25.4241 105.245 25.4241C105.135 25.3062 105.05 25.1664 104.998 25.014C104.834 24.6531 104.749 24.2617 104.75 23.8658C104.75 23.8658 105.163 24.768 105.576 24.85H106.237C106.374 24.7872 106.497 24.6963 106.596 24.5833C106.696 24.4702 106.771 24.3375 106.815 24.1939C106.86 23.7549 106.832 23.3116 106.732 22.8817C106.675 22.628 106.592 22.3807 106.485 22.1436C105.791 20.9985 105.211 19.7901 104.75 18.535C104.837 18.2427 104.865 17.9361 104.832 17.6329C104.75 17.3048 104.915 16.6488 104.75 16.3207C104.648 16.1671 104.564 16.0019 104.502 15.8286H104.419C104.43 15.8286 104.441 15.8265 104.451 15.8224C104.461 15.8182 104.47 15.8122 104.478 15.8046C104.485 15.797 104.491 15.788 104.496 15.778C104.5 15.768 104.502 15.7574 104.502 15.7466C104.504 15.632 104.475 15.5189 104.419 15.4185C104.419 15.3365 104.502 15.0905 104.502 15.0085C104.507 14.9453 104.537 14.8865 104.584 14.8444V14.5164C104.584 14.4344 104.832 13.7783 104.667 13.4503C104.231 12.7825 103.549 12.3113 102.767 12.138C102.438 12.0916 102.101 12.1358 101.796 12.266C101.49 12.3962 101.226 12.6072 101.032 12.8762C100.463 13.6513 100.017 14.5088 99.7105 15.4185L100.041 15.1725L99.7105 15.7466L99.2974 16.1567C99.0496 16.4027 98.5539 16.2387 98.3061 15.9926C98.3887 16.1567 98.7192 16.5667 99.0496 16.5667C99.3801 16.5667 98.6366 17.3048 98.2235 17.3048C97.9901 17.3373 97.7532 17.2785 97.5626 17.1408C97.6452 17.2228 97.7278 17.5509 97.8931 17.5509C98.0583 17.5509 97.8104 17.8789 97.48 17.5509C97.5025 17.6736 97.5599 17.7874 97.6452 17.8789L97.3148 18.207C97.2652 18.2617 97.2314 18.3286 97.2169 18.4008C97.2023 18.4729 97.2076 18.5476 97.2322 18.617C97.2103 18.617 97.1893 18.6257 97.1738 18.6411C97.1583 18.6565 97.1496 18.6773 97.1496 18.699L95.8278 20.4213C95.1772 21.2178 94.5968 22.0684 94.093 22.9637L93.8452 23.5378C93.7777 23.6341 93.7415 23.7485 93.7415 23.8658C93.7415 23.9831 93.7777 24.0976 93.8452 24.1939L94.5887 25.3421C94.8801 25.8787 95.2411 26.3749 95.6626 26.8183L97.48 28.6226C97.5254 28.6629 97.5843 28.6852 97.6452 28.6852C97.7062 28.6852 97.765 28.6629 97.8105 28.6226L98.0583 28.3765H99.2974V28.7046C98.9566 29.6633 98.7077 30.6518 98.5539 31.657C98.5547 32.5616 98.6099 33.4654 98.7192 34.3634C98.8018 35.0195 98.8844 36.1677 98.8844 36.1677C98.9769 37.3976 98.9492 38.6336 98.8018 39.8582C98.6365 41.5805 98.7192 40.1863 98.4713 43.0567C98.4713 43.1388 98.3061 43.0567 98.3061 43.1387C98.0583 46.3372 98.3887 47.4034 98.3887 47.4034C98.3887 47.4034 98.4713 48.1415 98.5539 48.5516C98.6625 48.8967 98.7182 49.2561 98.7192 49.6177V50.1098C98.7661 50.1779 98.8274 50.2351 98.8987 50.2776C98.9699 50.32 99.0496 50.3467 99.1322 50.3559H99.8757C99.8976 50.3559 99.9186 50.3472 99.9341 50.3318C99.9496 50.3165 99.9583 50.2956 99.9583 50.2738H100.289C100.583 50.2799 100.872 50.1938 101.115 50.0278L101.445 49.7818V49.2897C101.394 49.2323 101.33 49.1875 101.258 49.1591C101.187 49.1306 101.109 49.1192 101.032 49.1257H100.784V48.9616C100.572 48.0189 100.544 47.0444 100.702 46.0912C100.702 46.0912 100.867 43.9589 100.867 43.3848H100.702V42.0726C100.688 41.8507 100.716 41.6283 100.784 41.4165L101.032 40.4323C101.19 40.157 101.275 39.8468 101.28 39.5302V38.136C101.41 37.3763 101.492 36.6094 101.528 35.8397C101.531 35.1803 101.586 34.5222 101.693 33.8713C101.858 33.2973 102.024 32.3951 102.024 32.3951L102.189 32.0671C102.189 31.985 102.271 31.9851 102.354 31.9851L102.684 32.1491C102.888 32.6206 103.027 33.1171 103.097 33.6253C103.138 34.1234 103.221 34.6173 103.345 35.1015C103.471 35.9719 103.471 36.8556 103.345 37.7259C103.345 38.3 103.511 40.1043 103.676 41.4985C103.841 42.8927 103.841 42.6467 103.924 43.0567C104.006 43.4668 103.758 43.1387 103.758 43.1387L104.089 46.1732L104.419 48.3056C104.419 48.4696 104.502 48.6336 104.502 48.7976V49.3717H104.419C104.419 49.4537 104.337 49.5357 104.337 49.6177V50.0278C104.337 50.0278 104.419 50.2738 104.584 50.2738H105.245C105.245 50.2738 105.411 50.2738 105.411 50.1918C105.411 50.1098 106.237 50.3559 106.237 50.3559C106.724 50.4657 107.227 50.4934 107.724 50.4379C108.467 50.6019 108.385 49.9458 108.385 49.9458ZM99.7931 25.7521C99.6452 26.0665 99.5343 26.3967 99.4627 26.7362V26.9003C99.4627 26.9823 99.4627 27.0643 99.2974 27.0643H99.2148C99.1322 27.1463 99.0496 27.2283 98.8844 27.1463L98.3887 26.7362H98.2235C98.0583 26.6542 97.9757 26.8183 97.8931 26.8183C97.8104 26.8183 97.6452 26.8183 97.5626 26.6543C97.4082 26.1708 97.1552 25.7241 96.8191 25.3421L96.5713 24.932C96.5713 24.845 96.5365 24.7616 96.4745 24.7001C96.4126 24.6385 96.3285 24.6039 96.2409 24.6039H96.0756L95.9104 24.4399C95.8447 24.3437 95.8154 24.2275 95.8278 24.1119C95.8705 23.9229 95.8705 23.7268 95.8278 23.5378C95.8278 23.5378 95.7452 23.4558 95.9104 23.2918C96.0756 23.1277 96.0756 23.1277 96.0756 23.1277L96.4061 22.5536C96.6355 22.1901 96.9134 21.859 97.2322 21.5695L97.7278 21.1594C97.8177 21.1382 97.9116 21.1423 97.9992 21.1713C98.0868 21.2003 98.1645 21.253 98.2235 21.3234C98.4713 21.6515 98.967 22.7176 99.0496 22.7997C99.1322 22.8817 99.1322 23.0457 99.0496 23.1277C98.967 23.2097 98.967 23.3738 99.0496 23.5378L99.7931 24.522C99.9383 24.9194 99.9383 25.3547 99.7931 25.7521ZM104.089 16.8948H103.841L103.593 16.6487C103.593 16.5667 103.758 16.3207 103.758 16.2387H104.006C104.089 16.5667 104.089 16.8127 104.089 16.8948Z" fill="#F4F4F4"/>
</g>
<defs>
<clipPath id="clip0_214_1129">
<rect width="257" height="119" fill="white"/>
</clipPath>
</defs>
</svg>
