<svg width="260" height="36" viewBox="0 0 260 36" fill="none" xmlns="http://www.w3.org/2000/svg">
<g clip-path="url(#clip0_331_64)">
<path d="M90.6016 22.1942C89.8266 22.511 88.9962 22.6695 88.1592 22.6602C87.2221 22.6726 86.2922 22.4943 85.426 22.1359C84.6421 21.7882 83.9316 21.2939 83.3325 20.6796C82.7659 20.0221 82.3138 19.2738 81.995 18.466C81.6902 17.5854 81.533 16.6602 81.5298 15.7282C81.5236 14.79 81.7014 13.8598 82.0531 12.9903C82.379 12.1904 82.8525 11.4592 83.4488 10.835C84.0524 10.2109 84.7611 9.69818 85.5423 9.3204C86.3306 8.97427 87.1821 8.79575 88.0429 8.79612C88.8416 8.79298 89.6328 8.95149 90.369 9.26214C91.0251 9.51966 91.6495 9.85194 92.2298 10.2524L93.2184 7.92234C92.4779 7.51545 91.6987 7.1837 90.8923 6.93205C89.9542 6.62212 88.9725 6.46478 87.9847 6.46603C86.7479 6.45038 85.5209 6.68827 84.3792 7.16506C83.3097 7.63295 82.3417 8.30576 81.5298 9.14564C80.737 10.0164 80.1067 11.0226 79.6689 12.1165C79.2448 13.3136 79.0284 14.5745 79.0292 15.8447C79.0224 17.0395 79.2393 18.2251 79.6689 19.3398C80.0505 20.4308 80.6658 21.4249 81.4716 22.2524C82.2731 23.1046 83.2437 23.7792 84.3211 24.233C85.528 24.7019 86.8069 24.9581 88.101 24.9903C88.8661 24.987 89.6278 24.8892 90.369 24.699C90.9927 24.5845 91.5987 24.3886 92.1717 24.1165C92.5946 23.9125 93.0027 23.6789 93.3929 23.4175L92.4043 21.2621C91.8625 21.6762 91.2523 21.9917 90.6016 22.1942Z" fill="#F4F4F4"/>
<path d="M109.385 14.5631H99.9641V6.69904H97.5217V24.8155H99.9641V16.835H109.385V24.8155H111.827V6.69904H109.385V14.5631Z" fill="#F4F4F4"/>
<path d="M126.831 16.2524C127.29 15.7004 127.645 15.0686 127.877 14.3884C128.059 13.7038 128.157 12.9996 128.168 12.2913C128.205 11.4954 128.056 10.7019 127.733 9.9739C127.41 9.24586 126.922 8.60325 126.307 8.09709C125.721 7.62391 125.05 7.26793 124.33 7.04854C123.498 6.81041 122.637 6.69272 121.771 6.69903H117.003V24.7573H119.387V18.1165H122.644L126.889 24.7573H129.738L125.202 17.4757C125.835 17.2042 126.393 16.7848 126.831 16.2524ZM122.004 15.7864H119.387V9.02913H122.179C122.735 9.02543 123.286 9.12416 123.807 9.32039C124.227 9.51396 124.588 9.81544 124.854 10.1942C125.129 10.5016 125.346 10.857 125.493 11.2427C125.608 11.6204 125.667 12.0129 125.668 12.4078C125.662 12.7831 125.603 13.1558 125.493 13.5146C125.382 13.9213 125.183 14.299 124.912 14.6214C124.619 14.9829 124.238 15.2636 123.807 15.4369C123.242 15.6935 122.624 15.8132 122.004 15.7864Z" fill="#F4F4F4"/>
<path d="M147.649 9.2039C146.785 8.37407 145.781 7.70359 144.683 7.22331C143.557 6.72407 142.339 6.46619 141.107 6.46619C139.875 6.46619 138.657 6.72407 137.531 7.22331C135.322 8.17474 133.569 9.9508 132.646 12.1748C132.134 13.2885 131.876 14.5022 131.89 15.7282C131.864 16.9927 132.123 18.2469 132.646 19.3981C133.09 20.499 133.764 21.4921 134.623 22.3107C135.47 23.1777 136.484 23.8626 137.604 24.3233C138.724 24.7841 139.926 25.011 141.136 24.9903C142.354 25.0013 143.561 24.7634 144.683 24.2913C145.777 23.8038 146.78 23.1341 147.649 22.3107C148.497 21.4601 149.169 20.4506 149.626 19.3398C150.125 18.2114 150.382 16.9912 150.382 15.7573C150.382 14.5234 150.125 13.3031 149.626 12.1748C149.169 11.064 148.497 10.0544 147.649 9.2039ZM147.358 18.466C147.019 19.2727 146.525 20.005 145.905 20.6214C145.308 21.2533 144.598 21.7671 143.811 22.1359C142.965 22.4944 142.054 22.6729 141.136 22.6602C140.237 22.6666 139.347 22.4881 138.519 22.1359C137.723 21.7539 136.996 21.2421 136.368 20.6214C135.733 19.9941 135.238 19.2398 134.914 18.4078C134.556 17.5605 134.378 16.648 134.39 15.7282C134.39 14.8095 134.568 13.8995 134.914 13.0486C135.253 12.2383 135.725 11.4902 136.309 10.835C136.94 10.2324 137.668 9.74012 138.461 9.37865C139.296 8.98023 140.212 8.78085 141.136 8.79612C142.035 8.78974 142.926 8.96819 143.753 9.3204C144.558 9.68771 145.287 10.2012 145.905 10.835C146.527 11.4723 147.02 12.2239 147.358 13.0486C147.71 13.918 147.888 14.8483 147.882 15.7864C147.882 16.7051 147.704 17.6151 147.358 18.466Z" fill="#F4F4F4"/>
<path d="M167.828 19.8058L154.569 6.17474H154.453V24.8155H156.896L156.837 11.8835L170.096 25.398H170.212V6.69902H167.77L167.828 19.8058Z" fill="#F4F4F4"/>
<path d="M189.926 9.20388C189.093 8.36234 188.106 7.68983 187.019 7.2233C185.904 6.71787 184.694 6.45954 183.471 6.46601C182.228 6.44722 180.997 6.70591 179.866 7.2233C178.756 7.68015 177.748 8.35302 176.899 9.20295C176.051 10.0529 175.379 11.063 174.923 12.1748C174.458 13.3012 174.22 14.5091 174.225 15.7281C174.21 16.9859 174.447 18.234 174.923 19.3981C175.389 20.4874 176.06 21.4764 176.9 22.3107C177.765 23.1405 178.769 23.811 179.866 24.2913C182.16 25.2208 184.725 25.2208 187.019 24.2913C188.104 23.7893 189.104 23.1211 189.984 22.3107C190.813 21.4446 191.482 20.4389 191.962 19.3398C192.683 17.6418 192.874 15.7651 192.511 13.9561C192.148 12.1471 191.247 10.4905 189.926 9.20388ZM189.694 18.466C189.333 19.2609 188.841 19.9894 188.24 20.6214C187.611 21.2421 186.884 21.7539 186.088 22.1359C185.259 22.482 184.37 22.6602 183.471 22.6602C182.573 22.6602 181.684 22.482 180.854 22.1359C180.05 21.7686 179.32 21.2551 178.703 20.6214C178.068 19.9941 177.573 19.2398 177.249 18.4078C176.891 17.5605 176.713 16.648 176.726 15.7281C176.726 14.8095 176.903 13.8995 177.249 13.0485C177.544 12.2159 178.021 11.4597 178.645 10.8349C179.265 10.22 179.995 9.72615 180.796 9.37863C181.629 8.974 182.546 8.77429 183.471 8.79611C184.37 8.78973 185.261 8.96817 186.088 9.32039C186.884 9.70236 187.611 10.2142 188.24 10.8349C188.842 11.4878 189.334 12.2357 189.694 13.0485C190.045 13.918 190.223 14.8483 190.217 15.7864C190.217 16.7051 190.039 17.6151 189.694 18.466Z" fill="#F4F4F4"/>
<path d="M199.23 6.69904H196.788V24.8155H208.36V22.4854H199.23V6.69904Z" fill="#F4F4F4"/>
<path d="M214.757 16.8932H223.073V14.5631H214.757V9.02913H224.062V6.69904H212.315V24.8155H224.411V22.4854H214.757V16.8932Z" fill="#F4F4F4"/>
<path d="M241.973 19.8058L228.714 6.17474H228.598V24.8155H231.04L230.982 11.8835L244.241 25.398H244.357V6.69902H241.915L241.973 19.8058Z" fill="#F4F4F4"/>
<path d="M259.593 17.6505C259.326 17.1107 258.973 16.6187 258.546 16.1942C258.103 15.7788 257.592 15.4437 257.034 15.2039L255.406 14.4466L253.487 13.6893C252.948 13.4223 252.457 13.068 252.033 12.6408C251.685 12.237 251.498 11.7181 251.51 11.1845C251.503 10.8441 251.578 10.5072 251.73 10.2027C251.882 9.89824 252.106 9.6354 252.382 9.4369C253.031 8.94111 253.835 8.69327 254.65 8.73788C255.381 8.73979 256.107 8.85775 256.802 9.08739C257.497 9.31361 258.177 9.58607 258.837 9.90292L259.767 8.03885C259.016 7.59879 258.216 7.24695 257.383 6.9903C256.384 6.6924 255.344 6.55478 254.301 6.58254C253.356 6.60848 252.426 6.82648 251.568 7.22331C250.796 7.59148 250.149 8.17895 249.707 8.91264C249.233 9.66024 248.99 10.5318 249.009 11.4175C248.968 12.109 249.13 12.7974 249.474 13.3981C249.749 13.9482 250.147 14.4268 250.638 14.7961C251.145 15.1808 251.691 15.5126 252.266 15.7864L254.01 16.4855L255.697 17.2427C256.183 17.5119 256.616 17.8672 256.976 18.2913C257.312 18.7441 257.477 19.3012 257.441 19.8641C257.473 20.4716 257.287 21.0703 256.918 21.5534C256.555 22.0088 256.071 22.3521 255.522 22.5437C254.979 22.7298 254.41 22.8281 253.836 22.835C253.284 22.8437 252.735 22.7651 252.208 22.602C251.643 22.4493 251.097 22.2344 250.579 21.9612C250.088 21.7371 249.62 21.4638 249.184 21.1456L248.137 23.068C248.644 23.4375 249.19 23.7501 249.765 24C250.418 24.3024 251.1 24.5367 251.801 24.699C252.542 24.8892 253.303 24.987 254.069 24.9903C255.157 25.0215 256.236 24.7813 257.209 24.2913C258.043 23.8814 258.743 23.2418 259.227 22.4473C259.712 21.6528 259.959 20.7365 259.942 19.8058C259.96 19.072 259.841 18.3412 259.593 17.6505Z" fill="#F4F4F4"/>
<path d="M15.6431 35.4175C15.6431 35.4175 15.585 35.1845 15.1779 35.2427H14.8871C14.7036 35.0869 14.5634 34.8863 14.4801 34.6602C14.3634 34.3838 14.304 34.0865 14.3056 33.7864C14.3056 33.0874 14.2475 30.699 14.2475 30.699C14.194 30.6141 14.1112 30.5519 14.0148 30.5243L13.8985 27.3204V26.6796L14.073 25.2816L14.1893 23.1845C14.1906 22.6967 14.1517 22.2096 14.073 21.7282C13.9567 21.2039 13.7822 20.2136 13.7822 20.2136V19.8058L13.9567 19.6893C13.9567 19.6893 14.073 19.6311 14.0148 19.4563C13.7909 18.9835 13.5967 18.4971 13.4333 18L13.2589 17.6505C13.1504 17.4138 13.1102 17.1515 13.1425 16.8932C13.1425 16.8932 13.3752 17.534 13.6659 17.534C13.9567 17.534 13.9567 17.5922 14.1311 17.534C14.309 17.4481 14.4525 17.3044 14.5382 17.1262C14.603 16.7965 14.583 16.4557 14.4801 16.1359C14.4801 15.9612 14.4219 15.9029 14.3056 15.6117C13.8443 14.7843 13.4364 13.9281 13.0844 13.0485C13.1484 12.8615 13.1683 12.6621 13.1425 12.466C13.0844 12.233 13.2007 11.7087 13.0844 11.4757C13.0473 11.3674 12.9879 11.2682 12.9099 11.1845V11.068V10.7767C12.8518 10.6602 12.9099 10.5437 12.9099 10.4272V10.0777C12.9099 10.0194 13.0844 9.5534 12.9681 9.32039C12.6615 8.84609 12.1812 8.51138 11.6306 8.38835C11.3986 8.35534 11.1621 8.38678 10.9467 8.47923C10.7314 8.57168 10.5455 8.7216 10.4094 8.91262C10.0431 9.48386 9.73161 10.0885 9.47894 10.7184L9.71155 10.6019L9.47894 11.0097C9.41708 11.1515 9.31623 11.2727 9.18817 11.3592C9.01371 11.4757 8.6648 11.3592 8.49034 11.2427C8.63339 11.4284 8.84103 11.5532 9.07187 11.5922C9.07187 11.5922 8.72295 12.1165 8.49034 12.1165C8.25773 12.1165 8.14143 12.1165 8.02512 12C8.02512 12.0582 8.08328 12.2913 8.19958 12.3495C8.31589 12.4078 8.14143 12.5243 7.96697 12.3495H7.90882C7.96697 12.3495 7.96697 12.5243 8.02512 12.5243L7.85067 12.7573C7.85067 12.7573 7.67621 12.932 7.73436 13.0485L6.74577 14.3301C6.28376 14.8721 5.87482 15.4573 5.52457 16.0777L5.35011 16.4854C5.30258 16.5538 5.2771 16.6351 5.2771 16.7184C5.2771 16.8018 5.30258 16.8831 5.35011 16.9515L5.87348 17.767C6.07862 18.1481 6.33279 18.5006 6.62946 18.8155C7.32729 19.5728 7.96697 20.1553 7.96697 20.1553C7.96697 20.1553 8.02513 20.2718 8.14143 20.0971L8.31588 19.9223H8.6648L9.01372 19.8058H9.18817V19.9806C8.91657 20.6355 8.72143 21.3196 8.60665 22.0194C8.60743 22.6813 8.64627 23.3426 8.72296 24C8.78111 24.466 8.83926 25.2233 8.83926 25.2233C8.90594 26.1153 8.90594 27.011 8.83926 27.9029C8.68651 28.6506 8.60858 29.4116 8.60665 30.1748C8.60665 30.233 8.49034 30.233 8.49034 30.2913C8.352 31.2783 8.37163 32.2812 8.5485 33.2621C8.60905 33.5304 8.64794 33.8031 8.6648 34.0777C8.73604 34.324 8.77513 34.5786 8.78111 34.835V35.1845L9.07187 35.301C9.26459 35.3306 9.46068 35.3306 9.65339 35.301C9.71155 35.301 9.65339 35.2427 9.65339 35.2427H9.88601L10.5257 35.1262L10.7001 34.8932C10.7001 34.8932 10.7583 34.7767 10.7001 34.7184V34.6019C10.642 34.4854 10.5838 34.4272 10.4094 34.4854H10.2349C10.2195 34.4854 10.2047 34.4793 10.1938 34.4684C10.1829 34.4574 10.1768 34.4426 10.1768 34.4272C10.072 33.7516 10.072 33.0639 10.1768 32.3883C10.1768 32.3883 10.2349 30.8155 10.2349 30.466H10.1186V29.4757C10.1127 29.3183 10.1323 29.1609 10.1768 29.0097L10.3512 28.3107C10.4702 28.1186 10.5308 27.8959 10.5257 27.6699V27.0874C10.5257 27.0874 10.7001 25.9806 10.7583 25.3981C10.7314 24.9289 10.7706 24.4582 10.8746 24C10.9328 23.5922 11.1072 22.9515 11.1072 22.9515V22.7184H11.2235L11.398 22.8349C11.567 23.181 11.6658 23.5572 11.6887 23.9417C11.8632 24.7573 11.805 24.699 11.9213 24.932C12.0377 25.1651 11.9213 26.3883 11.9213 26.7961C11.9213 27.2039 11.9795 28.5437 12.0958 29.534C12.2121 30.5243 12.2121 30.3495 12.2703 30.6408H12.2121L12.4447 32.7961L12.6773 34.3689C12.724 34.4792 12.744 34.599 12.7355 34.7184V35.068C12.6773 35.068 12.6192 35.1845 12.6192 35.1845V35.4757C12.6192 35.4757 12.6773 35.7087 12.7936 35.7087H13.317C13.3324 35.7087 13.3472 35.7026 13.3581 35.6917C13.369 35.6807 13.3752 35.6659 13.3752 35.6505C13.3752 35.534 13.9567 35.767 13.9567 35.767C14.3003 35.844 14.6513 35.883 15.0034 35.8835C15.7013 35.9417 15.6431 35.4175 15.6431 35.4175ZM9.42079 18.2913L9.24633 18.8738C9.24633 19.0485 9.18817 18.9903 9.07187 19.1068H8.83926L8.49034 18.8738H8.19958C8.18483 18.8837 8.16802 18.8901 8.15043 18.8924C8.13284 18.8948 8.11494 18.8931 8.0981 18.8875C8.08126 18.8819 8.06593 18.8725 8.05328 18.86C8.04063 18.8475 8.031 18.8323 8.02512 18.8155L7.85067 18.466L7.55991 18C7.55991 18 7.38545 17.8252 7.38545 17.7087V17.5922L7.21099 17.4757C7.09468 17.4757 7.15284 17.4175 7.03653 17.3592L6.92023 17.1845V16.8932C6.92023 16.8349 6.86207 16.7767 6.86207 16.7184C6.8594 16.6869 6.86318 16.6551 6.87318 16.6251C6.88318 16.595 6.89919 16.5673 6.92023 16.5437L7.38545 15.8447C7.57521 15.5885 7.81206 15.371 8.08328 15.2039C8.1545 15.1759 8.23292 15.1722 8.30647 15.1932C8.38002 15.2143 8.44462 15.259 8.49034 15.3204L8.72296 15.7281C8.72296 15.7281 9.07187 16.3107 8.95557 16.4854C8.93956 16.5222 8.93129 16.5618 8.93129 16.6019C8.93129 16.642 8.93956 16.6817 8.95557 16.7184L9.42079 17.3592C9.49252 17.5041 9.52985 17.6636 9.52985 17.8252C9.52985 17.9869 9.49252 18.1464 9.42079 18.2913ZM12.561 12H12.4447C12.4447 11.9417 12.3284 11.8835 12.3284 11.8252C12.3284 11.767 12.3866 11.6505 12.3866 11.5922H12.561C12.6073 11.6606 12.6279 11.7431 12.6192 11.8252L12.561 12Z" fill="#F4F4F4"/>
<path d="M40.4159 7.74758L56.8149 9.96116V19.6893L40.4159 21.9029V7.74758ZM39.4855 4.71844C38.9611 4.71844 38.4582 4.92712 38.0874 5.29855C37.7166 5.66998 37.5083 6.17375 37.5083 6.69903V22.9515C37.5083 23.4767 37.7166 23.9805 38.0874 24.3519C38.4582 24.7234 38.9611 24.932 39.4855 24.932H39.7762L57.978 22.4854C58.4561 22.4164 58.8941 22.1793 59.2137 21.8164C59.5333 21.4536 59.7137 20.9887 59.7226 20.5049V9.14563C59.7259 8.65833 59.5499 8.18689 59.228 7.82149C58.9061 7.45608 58.4611 7.22237 57.978 7.16505L39.7762 4.71844H39.4855Z" fill="#F4F4F4"/>
<path d="M30.3555 0H30.0647L1.68629 3.78641C1.21377 3.85675 0.782641 4.09609 0.472628 4.46018C0.162615 4.82427 -0.00531703 5.28848 -0.000127358 5.76699V23.8835C-0.00531703 24.362 0.162615 24.8262 0.472628 25.1903C0.782641 25.5544 1.21377 25.7937 1.68629 25.8641L6.10589 26.4466C6.3385 26.4466 6.51296 26.3301 6.51296 26.0971V23.8252C6.51296 23.748 6.48232 23.6739 6.42779 23.6193C6.37326 23.5647 6.29931 23.534 6.22219 23.534L2.9075 23.068V6.58253L29.4251 3.02912V26.6214L16.6315 24.932C16.5888 24.9233 16.5446 24.9243 16.5023 24.935C16.46 24.9456 16.4207 24.9657 16.3871 24.9937C16.3536 25.0216 16.3268 25.0568 16.3087 25.0965C16.2906 25.1363 16.2817 25.1796 16.2826 25.2233V27.4951C16.286 27.5691 16.3095 27.6406 16.3505 27.7022C16.3915 27.7638 16.4484 27.813 16.5152 27.8447L30.0647 29.6505H30.3555C30.8799 29.6505 31.3828 29.4418 31.7536 29.0704C32.1244 28.699 32.3327 28.1952 32.3327 27.6699V1.98058C32.3327 1.4553 32.1244 0.951529 31.7536 0.580098C31.3828 0.208666 30.8799 0 30.3555 0Z" fill="#F4F4F4"/>
</g>
<defs>
<clipPath id="clip0_331_64">
<rect width="260" height="36" fill="white"/>
</clipPath>
</defs>
</svg>
