<svg width="102" height="23" viewBox="0 0 102 23" fill="none" xmlns="http://www.w3.org/2000/svg">
<path fill-rule="evenodd" clip-rule="evenodd" d="M39.7726 7.7612H46.4103V5.62928H38.521C38.1532 5.62928 37.8389 5.75607 37.5808 6.00966C37.3228 6.26325 37.1953 6.56992 37.1953 6.93261V18.067H39.7756V12.5735H43.388C43.7588 12.5735 44.0702 12.4467 44.3282 12.1931C44.5863 11.9395 44.7168 11.6329 44.7168 11.2702V10.4386H39.7726V7.7612ZM18.955 5.62928H17.6263V18.067H20.2066V6.82351C20.2066 6.48441 20.085 6.20428 19.8389 5.97133C19.5956 5.74428 19.2991 5.62928 18.955 5.62928ZM15.5146 8.4512H14.1859V18.067H16.7662V9.67787C16.7662 9.34171 16.6446 9.05274 16.3984 8.81095C16.1552 8.5721 15.8586 8.4512 15.5146 8.4512ZM15.5146 5.62928H14.1859V7.61966H16.7662V6.86184C16.7662 6.52274 16.6446 6.23082 16.3984 5.99197C16.1552 5.75018 15.8586 5.62928 15.5146 5.62928ZM34.4904 9.06454C33.5798 8.51313 32.5863 8.23595 31.5037 8.23595C30.9639 8.25954 30.439 8.33915 29.9377 8.46889C29.4335 8.60159 28.9975 8.82274 28.6298 9.13825C28.1849 8.77851 27.6955 8.53672 27.1527 8.41582C26.61 8.29492 26.0613 8.233 25.4948 8.233C24.436 8.28312 23.4721 8.58095 22.6001 9.13825C21.7281 9.69261 21.2921 10.7895 21.2921 12.4261V18.067H23.8725V11.9218C23.8725 11.3439 24.0445 10.9222 24.3885 10.6568C24.7326 10.3915 25.1241 10.2588 25.569 10.2588C26.0138 10.2588 26.4113 10.3915 26.7672 10.6568C27.1231 10.9222 27.301 11.3439 27.301 11.9218V12.429V18.0699H29.8458V12.4261V11.9189C29.8458 11.3409 30.0237 10.9193 30.3796 10.6539C30.7355 10.3885 31.1359 10.2558 31.5779 10.2558C32.0198 10.2558 32.4172 10.3885 32.7731 10.6539C33.129 10.9193 33.307 11.3409 33.307 11.9189V16.8374C33.307 17.1971 33.4226 17.492 33.6569 17.722C33.8942 17.952 34.1908 18.064 34.5645 18.064H35.8547V12.4261C35.8547 10.7394 35.3979 9.61889 34.4904 9.06454ZM50.5744 8.4512C49.91 8.4512 49.2664 8.53377 48.6377 8.70479C48.0119 8.87582 47.4632 9.1412 46.9975 9.50095C46.5082 9.88723 46.1196 10.3974 45.8349 11.0372C45.5531 11.6771 45.4108 12.4644 45.4108 13.4021V18.067H47.9911V13.1161C47.9911 12.3907 48.1631 11.8599 48.5072 11.5238C48.8512 11.1876 49.3791 11.0166 50.0939 11.0166H50.9422V8.44825C50.8917 8.44825 50.8295 8.44825 50.7553 8.44825C50.6841 8.4512 50.6248 8.4512 50.5744 8.4512ZM100.229 8.4512C99.5917 8.4512 99.1972 8.74018 99.0489 9.31813L97.3139 15.248L95.3208 8.4512H92.4825L95.914 18.0316C96.086 18.5388 96.0297 18.9044 95.7479 19.1374C95.4632 19.3644 95.0776 19.4794 94.5853 19.4794H93.8824V21.4698C93.9595 21.4698 94.0484 21.4757 94.1582 21.4845C94.2679 21.4963 94.3628 21.514 94.434 21.5406C94.5111 21.5406 94.5942 21.5406 94.692 21.5406C94.7899 21.5406 94.8789 21.5406 94.9501 21.5406C95.9555 21.5406 96.6851 21.3961 97.127 21.1042C97.569 20.768 97.9367 20.1989 98.2304 19.4086L101.991 8.4512H100.229ZM91.1626 8.92005C90.4775 8.46005 89.4454 8.233 88.0662 8.233C86.8384 8.233 85.8922 8.51018 85.2279 9.06454C84.6377 9.54813 84.2936 10.1615 84.1957 10.9104H86.6663C86.7879 10.645 86.9837 10.4652 87.2536 10.3708C87.5235 10.2765 87.8319 10.2263 88.176 10.2263C88.4963 10.2263 88.8463 10.2824 89.2289 10.3885C89.6085 10.4976 89.8013 10.7306 89.8013 11.0933C89.8013 11.5768 89.2615 11.8894 88.176 12.0339C87.9565 12.0575 87.7608 12.0899 87.5887 12.1224C87.4167 12.1577 87.2684 12.1784 87.1438 12.1784C86.2126 12.3229 85.4414 12.6148 84.8393 13.0453C84.2373 13.4817 83.9377 14.2042 83.9377 15.2156C83.9377 16.3007 84.2669 17.0791 84.9313 17.548C85.5956 18.0198 86.3698 18.2557 87.2536 18.2557C87.6985 18.2557 88.2086 18.2262 88.7869 18.1672C89.3623 18.1053 89.911 17.9431 90.4271 17.6777C90.9165 17.4359 91.3435 17.0467 91.6995 16.5012C92.0554 15.9616 92.2333 15.2038 92.2333 14.2425V10.9429C92.2333 10.0759 91.8774 9.40069 91.1626 8.92005ZM89.8398 14.1275C89.8398 14.8027 89.6441 15.3306 89.2526 15.7168C88.8581 16.1031 88.3183 16.2977 87.6273 16.2977C87.2091 16.2977 86.8917 16.2034 86.6663 16.0088C86.4469 15.7935 86.3371 15.5016 86.3371 15.1418C86.3371 14.8765 86.4231 14.6111 86.5952 14.3457C86.7909 14.154 87.1112 13.9977 87.5561 13.8768C87.5561 13.8768 87.8379 13.8149 88.4044 13.694C89.0183 13.5495 89.4988 13.3962 89.8428 13.2252V14.1275H89.8398ZM82.3688 8.4512C81.7311 8.4512 81.3366 8.74018 81.1883 9.31813L79.8211 15.1035L78.4923 8.4512H75.8735L74.4736 15.1035L72.9254 8.4512H70.4162L73.1063 18.067H75.6896L77.1992 11.1994L78.7118 18.067H81.2921L83.9852 8.4512H82.3688ZM65.9021 8.23005C64.5022 8.23005 63.4078 8.67825 62.6189 9.56877C61.8567 10.4357 61.477 11.6417 61.477 13.1839C61.477 14.7998 61.8715 16.0412 62.6574 16.9081C63.4434 17.7986 64.5378 18.2468 65.9407 18.2468C67.0944 18.2468 68.0554 17.9697 68.8176 17.4153C69.5798 16.8845 70.0959 16.112 70.3658 15.1006H68.521C68.2274 15.1006 67.999 15.1625 67.8389 15.2834C67.6817 15.4043 67.5868 15.4986 67.566 15.5694C67.4889 15.6431 67.4236 15.708 67.3613 15.7699C67.302 15.8289 67.2338 15.8731 67.1597 15.8967C66.8631 16.0677 66.5072 16.1503 66.089 16.1503C65.4483 16.1503 64.9679 15.9557 64.6505 15.5694C64.3035 15.2097 64.1226 14.6524 64.0959 13.9063H70.4755C70.4993 13.8562 70.5141 13.7736 70.5141 13.6527C70.5141 13.6292 70.5141 13.582 70.5141 13.5083C70.5141 13.4375 70.5141 13.352 70.5141 13.2547C70.5141 11.6624 70.1196 10.4209 69.3337 9.53043C68.521 8.66646 67.3762 8.23005 65.9021 8.23005ZM64.0959 12.2816C64.1196 11.6565 64.3035 11.1729 64.6505 10.8338C64.9946 10.4976 65.4365 10.3266 65.9792 10.3266C66.5665 10.3266 67.0232 10.4976 67.3406 10.8338C67.6372 11.1493 67.8092 11.6299 67.8566 12.2816H64.0959ZM56.0465 8.23005C54.6466 8.23005 53.5521 8.67825 52.7632 9.56877C52.001 10.4357 51.6214 11.6417 51.6214 13.1839C51.6214 14.7998 52.0158 16.0412 52.8018 16.9081C53.5877 17.7986 54.6851 18.2468 56.085 18.2468C57.2388 18.2468 58.1997 17.9697 58.9619 17.4153C59.7242 16.8845 60.2402 16.112 60.5101 15.1006H58.6653C58.3717 15.1006 58.1434 15.1625 57.9832 15.2834C57.826 15.4043 57.7311 15.4986 57.7103 15.5694C57.6362 15.6431 57.568 15.708 57.5057 15.7699C57.4464 15.8289 57.3782 15.8731 57.304 15.8967C57.0074 16.0677 56.6515 16.1503 56.2333 16.1503C55.5957 16.1503 55.1122 15.9557 54.7949 15.5694C54.4478 15.2097 54.2669 14.6524 54.2402 13.9063H60.6199C60.6466 13.8562 60.6584 13.7736 60.6584 13.6527C60.6584 13.6292 60.6584 13.582 60.6584 13.5083C60.6584 13.4375 60.6584 13.352 60.6584 13.2547C60.6584 11.6624 60.264 10.4209 59.478 9.53043C58.6624 8.66646 57.5205 8.23005 56.0465 8.23005ZM54.2402 12.2816C54.2669 11.6565 54.4478 11.1729 54.7949 10.8338C55.1389 10.4976 55.5808 10.3266 56.1236 10.3266C56.7108 10.3266 57.1676 10.4976 57.4849 10.8338C57.7815 11.1493 57.9535 11.6299 58.001 12.2816H54.2402ZM12.8038 0.0119708L0.507168 2.65107C0.240237 2.7071 0.0207612 2.96069 0 3.22018V3.23197V3.24377V3.25556V19.7389V19.7507V19.7625V19.7743C0.0207612 20.0338 0.240237 20.2874 0.507168 20.3434L12.8008 22.9825C13.0796 23.0415 13.308 22.8675 13.308 22.5933V16.8845V7.7612H6.72071V10.4386H11.6619V11.2702C11.6619 11.6299 11.5344 11.9395 11.2763 12.1931C11.0183 12.4467 10.7069 12.5735 10.3361 12.5735H6.72071V18.067H4.14039V6.93261C4.14039 6.57287 4.26792 6.26325 4.52595 6.00966C4.78398 5.75607 5.09837 5.62928 5.46614 5.62928H13.308V0.401202C13.3109 0.126971 13.0826 -0.0470036 12.8038 0.0119708Z" fill="#F4F4F4"/>
</svg>
