<svg width="24" height="25" viewBox="0 0 24 25" fill="none" xmlns="http://www.w3.org/2000/svg">
<path d="M8.25 0.5C8.94036 0.5 9.5 1.05964 9.5 1.75V3H14.5V1.75C14.5 1.05964 15.0596 0.5 15.75 0.5C16.4404 0.5 17 1.05964 17 1.75V3H20.75C22.1307 3 23.25 4.11929 23.25 5.5V21.75C23.25 23.1307 22.1307 24.25 20.75 24.25H3.25C1.86929 24.25 0.75 23.1307 0.75 21.75V5.5C0.75 4.11929 1.86929 3 3.25 3H7V1.75C7 1.05964 7.55964 0.5 8.25 0.5ZM7 5.5H3.25V9.25H20.75V5.5H17V6.75C17 7.44036 16.4404 8 15.75 8C15.0596 8 14.5 7.44036 14.5 6.75V5.5H9.5V6.75C9.5 7.44036 8.94036 8 8.25 8C7.55964 8 7 7.44036 7 6.75V5.5ZM20.75 11.75H3.25V21.75H20.75V11.75Z" fill="#F2AB27"/>
</svg>
