<svg width="42" height="23" viewBox="0 0 42 23" fill="none" xmlns="http://www.w3.org/2000/svg">
<path d="M9.41611 6.22168H6.38818V16.7213H9.41611V6.22168Z" fill="#F4F4F4"/>
<path d="M15.16 11.1428C14.9122 9.49961 14.6646 7.84828 14.3617 6.22168H10.4346V16.7213H13.0954V9.77902L14.2149 16.7213H16.1049L17.1694 9.62291V16.7213H19.8028V6.22168H15.8573L15.16 11.1428Z" fill="#F4F4F4"/>
<path d="M27.6019 7.93822C27.2074 6.08974 24.7208 6.22128 23.106 6.22128H20.8486V16.7209C28.7488 16.7292 27.7303 17.2138 27.7303 9.94297C27.7303 9.27741 27.758 8.56273 27.6019 7.93822ZM23.8858 14.8969V8.02047C24.9778 8.02047 24.8309 8.53816 24.8309 9.33494V13.3854C24.8309 14.1822 25.0052 14.9217 23.8858 14.8969Z" fill="#F4F4F4"/>
<path d="M33.5752 8.89166C32.7587 8.89166 32.2081 9.11354 31.6577 9.64756V6.22168H28.749V16.7213H31.4832L31.6577 16.0558C32.1807 16.6145 32.7496 16.861 33.5752 16.861C35.392 16.861 35.6122 15.6122 35.6122 14.3222V11.3646C35.6122 9.94337 35.5387 8.89166 33.5752 8.89166ZM32.1072 15.3493C31.9605 15.3493 31.8319 15.2834 31.7585 15.152C31.5566 14.733 31.6577 11.5288 31.6577 11.4796C31.6577 11.1674 31.5566 10.4362 32.1072 10.4362C32.7771 10.4362 32.6759 11.036 32.6759 11.4796V14.166C32.6759 14.6098 32.8228 15.3493 32.1072 15.3493Z" fill="#F4F4F4"/>
<path fill-rule="evenodd" clip-rule="evenodd" d="M5.45993 1.60028C3.43159 1.60028 1.78735 3.07252 1.78735 4.8887L1.78723 18.1113C1.78723 19.9275 3.43147 21.3997 5.45981 21.3997H36.5401C38.5684 21.3997 40.2127 19.9275 40.2127 18.1114L40.2128 4.88869C40.2128 3.07251 38.5685 1.60028 36.5403 1.60028H5.45993ZM0.000121415 4.88869C0.000121415 2.18871 2.44453 0 5.45993 0H36.5403C39.5556 0 42 2.18872 42 4.88869L41.9999 18.1114C41.9999 20.8113 39.5555 23 36.5401 23H5.45981C2.44441 23 0 20.8113 0 18.1113L0.000121415 4.88869Z" fill="#F4F4F4"/>
</svg>
