<svg width="218" height="31" viewBox="0 0 218 31" fill="none" xmlns="http://www.w3.org/2000/svg">
<g clip-path="url(#clip0_255_663)">
<path d="M75.9662 18.7671C75.3066 18.9926 74.615 19.1087 73.9184 19.111C73.1327 19.1214 72.353 18.971 71.6267 18.6688C70.9594 18.3938 70.3602 17.9745 69.8714 17.4406C69.3964 16.886 69.0173 16.2549 68.75 15.5737C68.4899 14.8322 68.3579 14.0512 68.3599 13.2647C68.3492 12.4889 68.4987 11.7193 68.7987 11.0048C69.0717 10.3154 69.4684 9.68247 69.9689 9.13788C70.475 8.61153 71.0692 8.17915 71.7242 7.86055C72.3852 7.56864 73.0991 7.41807 73.8209 7.41838C74.4906 7.41574 75.154 7.54944 75.7712 7.81143C76.3214 8.02862 76.8449 8.30883 77.3315 8.64659L78.1604 6.68146C77.5395 6.3383 76.8861 6.05854 76.21 5.8463C75.4234 5.58491 74.6004 5.4522 73.7721 5.45325C72.7351 5.44005 71.7063 5.64068 70.7491 6.04279C69.8523 6.4374 69.0406 7.00484 68.3599 7.71317C67.6951 8.44752 67.1667 9.29616 66.7996 10.2187C66.4404 11.2443 66.259 12.3245 66.2633 13.412C66.2624 14.4034 66.4443 15.3862 66.7996 16.3106C67.1195 17.2308 67.6355 18.0692 68.3111 18.7671C68.9831 19.4857 69.7969 20.0547 70.7003 20.4374C71.7053 20.8565 72.7819 21.0735 73.8696 21.0761C74.5078 21.0643 75.1439 20.9986 75.7712 20.8796C76.29 20.745 76.7958 20.5642 77.2827 20.3392C77.6469 20.186 77.9908 19.988 78.3067 19.7496L77.4778 17.9319C77.015 18.2799 76.5063 18.561 75.9662 18.7671Z" fill="#F4F4F4"/>
<path d="M91.7148 12.2821H83.8159V5.64977H81.7681V20.9287H83.8159V14.1981H91.7148V20.9287H93.7627V5.64977H91.7148V12.2821Z" fill="#F4F4F4"/>
<path d="M106.343 13.7068C106.737 13.2475 107.036 12.7128 107.22 12.1347C107.373 11.5574 107.455 10.9634 107.464 10.3661C107.467 9.67534 107.334 8.99089 107.074 8.35182C106.478 7.20932 105.464 6.3458 104.246 5.94451C103.549 5.74368 102.826 5.64443 102.101 5.64975H98.1025V20.8795H100.102V15.2789H102.832L106.392 20.8795H108.781L104.978 14.7385C105.508 14.5095 105.976 14.1558 106.343 13.7068ZM102.296 13.3138H100.102V7.61489H102.442C102.908 7.61177 103.371 7.69503 103.807 7.86053C104.159 8.02378 104.462 8.27804 104.685 8.59746C104.916 8.85672 105.098 9.15644 105.221 9.48176C105.314 9.80113 105.363 10.1317 105.368 10.4643C105.367 10.7812 105.317 11.096 105.221 11.3978C105.128 11.7408 104.961 12.0593 104.734 12.3312C104.488 12.6361 104.169 12.8729 103.807 13.019C103.333 13.2354 102.816 13.3364 102.296 13.3138Z" fill="#F4F4F4"/>
<path d="M123.798 7.76228C123.073 7.06243 122.231 6.49698 121.311 6.09193C119.901 5.48753 118.343 5.3236 116.839 5.6214C115.335 5.91921 113.955 6.66502 112.876 7.76228C112.166 8.47961 111.602 9.33103 111.218 10.2678C110.799 11.2278 110.583 12.2651 110.583 13.3138C110.583 14.3625 110.799 15.3998 111.218 16.3597C112.016 18.2083 113.48 19.6831 115.314 20.4865C116.273 20.8847 117.301 21.0852 118.337 21.0761C119.358 21.0853 120.37 20.8847 121.311 20.4865C122.228 20.0754 123.069 19.5106 123.798 18.8162C124.509 18.0988 125.072 17.2474 125.456 16.3106C125.89 15.373 126.107 14.3482 126.09 13.3138C126.101 12.2641 125.884 11.2247 125.456 10.2678C125.072 9.33103 124.509 8.47961 123.798 7.76228ZM123.554 15.5737C123.282 16.2607 122.866 16.8806 122.335 17.3915C121.848 17.9396 121.25 18.3753 120.58 18.6688C119.871 18.9711 119.107 19.1217 118.337 19.111C117.583 19.1163 116.837 18.9658 116.143 18.6688C115.466 18.3642 114.853 17.9304 114.339 17.3915C113.819 16.8716 113.405 16.254 113.12 15.5737C112.825 14.8404 112.676 14.0559 112.681 13.2647C112.701 11.7522 113.274 10.3002 114.29 9.18702C114.814 8.6363 115.442 8.19628 116.137 7.89263C116.832 7.58897 117.58 7.42774 118.337 7.41838C119.097 7.4059 119.849 7.57422 120.531 7.90966C121.213 8.184 121.828 8.60287 122.335 9.13787C122.857 9.6754 123.271 10.3093 123.554 11.0048C123.849 11.7381 123.998 12.5226 123.993 13.3138C123.993 14.0886 123.844 14.8561 123.554 15.5737Z" fill="#F4F4F4"/>
<path d="M140.717 16.7036L129.6 5.20761H129.503V20.9287H131.551L131.502 10.0222L142.619 21.42H142.717V5.64977H140.669L140.717 16.7036Z" fill="#F4F4F4"/>
<path d="M159.246 7.76227C158.548 7.05254 157.72 6.48539 156.808 6.09192C155.867 5.68812 154.857 5.47124 153.834 5.45323C152.794 5.46099 151.766 5.67816 150.811 6.09192C149.88 6.47722 149.035 7.04469 148.323 7.76149C147.612 8.4783 147.049 9.3302 146.666 10.2678C145.885 12.2222 145.885 14.4053 146.666 16.3597C147.492 18.2416 149.013 19.7252 150.906 20.4957C152.8 21.2662 154.917 21.2629 156.808 20.4865C157.718 20.0632 158.557 19.4996 159.295 18.8162C159.989 18.0857 160.551 17.2376 160.953 16.3106C161.363 15.3653 161.579 14.3457 161.586 13.3138C161.574 12.2666 161.358 11.232 160.953 10.2678C160.551 9.32876 159.971 8.47766 159.246 7.76227ZM159.051 15.5737C158.76 16.2506 158.347 16.867 157.832 17.3914C157.318 17.9304 156.705 18.3642 156.028 18.6688C155.333 18.9607 154.587 19.1109 153.834 19.1109C153.081 19.1109 152.335 18.9607 151.64 18.6688C150.956 18.376 150.341 17.9407 149.836 17.3914C149.315 16.8716 148.901 16.254 148.617 15.5737C148.322 14.8404 148.173 14.0559 148.178 13.2647C148.172 12.5052 148.322 11.7528 148.617 11.0539C148.84 10.34 149.243 9.69675 149.787 9.18701C150.292 8.63772 150.907 8.20238 151.591 7.90965C152.297 7.59181 153.061 7.42455 153.834 7.41837C154.593 7.40589 155.345 7.57421 156.028 7.90965C156.703 8.19635 157.316 8.61362 157.832 9.13786C158.337 9.68849 158.749 10.3192 159.051 11.0048C159.346 11.7381 159.495 12.5226 159.49 13.3138C159.49 14.0886 159.341 14.856 159.051 15.5737Z" fill="#F4F4F4"/>
<path d="M167.047 5.64977H165V20.9287H174.702V18.9636H167.047V5.64977Z" fill="#F4F4F4"/>
<path d="M180.066 14.2472H187.038V12.2821H180.066V7.6149H187.867V5.64977H178.018V20.9287H188.16V18.9636H180.066V14.2472Z" fill="#F4F4F4"/>
<path d="M202.885 16.7036L191.768 5.20761H191.67V20.9287H193.718L193.67 10.0222L204.786 21.42H204.884V5.64977H202.836L202.885 16.7036Z" fill="#F4F4F4"/>
<path d="M217.659 14.8859C217.435 14.4306 217.139 14.0157 216.781 13.6577C216.41 13.3074 215.981 13.0247 215.513 12.8225L214.148 12.1838C213.597 12.0093 213.06 11.7959 212.539 11.5452C212.087 11.3199 211.675 11.0212 211.32 10.6609C211.027 10.3406 210.869 9.91743 210.881 9.48177C210.867 9.18655 210.927 8.89251 211.054 8.62646C211.182 8.36041 211.374 8.13087 211.613 7.9588C212.157 7.54066 212.831 7.33163 213.514 7.36925C214.127 7.37087 214.736 7.47035 215.318 7.66401C215.902 7.85481 216.472 8.08459 217.025 8.35182L217.805 6.77971C217.174 6.40857 216.504 6.11185 215.806 5.8954C214.963 5.66816 214.094 5.55255 213.222 5.5515C212.426 5.59014 211.647 5.79069 210.93 6.14104C210.286 6.43342 209.743 6.91226 209.37 7.51663C208.972 8.14714 208.768 8.88221 208.785 9.62915C208.744 10.2128 208.88 10.7952 209.175 11.2995C209.404 11.7635 209.738 12.1672 210.15 12.4786C210.576 12.8031 211.033 13.0829 211.515 13.3138L212.978 13.9033L214.392 14.542C214.813 14.7703 215.179 15.0889 215.465 15.4754C215.747 15.8381 215.885 16.2931 215.855 16.7528C215.881 17.2651 215.725 17.7701 215.416 18.1775C215.112 18.5615 214.706 18.8511 214.246 19.0127C213.79 19.1697 213.313 19.2526 212.832 19.2583C212.369 19.2657 211.908 19.1994 211.466 19.0618L210.101 18.5705L208.931 17.8827L208.053 19.4548C208.478 19.7665 208.936 20.0301 209.418 20.2409C209.966 20.4959 210.538 20.6935 211.125 20.8304C211.746 20.9908 212.385 21.0733 213.027 21.0761C213.939 21.1024 214.844 20.8998 215.66 20.4865C216.377 20.1537 216.973 19.6042 217.366 18.9144C217.764 18.2478 217.967 17.4814 217.951 16.7036C217.966 16.0847 217.867 15.4684 217.659 14.8859Z" fill="#F4F4F4"/>
<path d="M167.389 25.6941C167.06 25.5721 166.714 25.5057 166.365 25.4976H165V30.8035H165.682V28.8875H166.462C166.746 28.8953 167.028 28.8452 167.291 28.7401L167.827 28.3471C167.973 28.1785 168.073 27.9757 168.12 27.7575C168.176 27.5657 168.209 27.3677 168.218 27.168C168.243 26.8534 168.157 26.5398 167.974 26.2837C167.831 26.0405 167.63 25.8376 167.389 25.6941ZM167.486 27.4628C167.451 27.5923 167.384 27.7106 167.291 27.8066L166.999 28.1014L166.462 28.1997H165.682V26.1854H166.511L166.999 26.2837L167.291 26.5293L167.486 26.8241C167.486 26.9714 167.535 27.0697 167.535 27.168C167.535 27.2662 167.486 27.3645 167.486 27.4628Z" fill="#F4F4F4"/>
<path d="M172.167 28.2979C172.308 28.1373 172.424 27.9548 172.508 27.7575C172.548 27.5638 172.565 27.3658 172.557 27.168C172.552 26.9194 172.519 26.6723 172.459 26.431C172.355 26.2338 172.204 26.0652 172.021 25.9398C171.85 25.7869 171.651 25.6699 171.435 25.5959L170.704 25.4976H169.29V30.8035H170.021V28.8875H170.948L172.216 30.8526H173.044L171.728 28.7401C171.911 28.6352 172.063 28.4824 172.167 28.2979ZM170.802 28.1997H170.021V26.1854H170.85L171.289 26.2837C171.421 26.3365 171.538 26.4208 171.63 26.5293C171.708 26.6293 171.758 26.7478 171.777 26.8732C171.816 26.9662 171.833 27.0672 171.825 27.168C171.837 27.2849 171.82 27.4028 171.777 27.5119C171.77 27.6404 171.718 27.7623 171.63 27.8558L171.289 28.1014L170.802 28.1997Z" fill="#F4F4F4"/>
<path d="M178.262 26.2346C178.009 25.9834 177.711 25.7833 177.384 25.645C177.055 25.5278 176.709 25.4615 176.36 25.4485C176.01 25.4566 175.664 25.523 175.336 25.645C175.009 25.7833 174.711 25.9834 174.459 26.2346C174.22 26.4975 174.022 26.7957 173.873 27.1189C173.738 27.4454 173.672 27.7967 173.678 28.1505C173.663 28.5209 173.73 28.8901 173.873 29.2314C174.011 29.5611 174.209 29.8612 174.459 30.1157C174.701 30.3681 175.003 30.5541 175.336 30.6561C175.654 30.8161 176.005 30.8994 176.36 30.8994C176.716 30.8994 177.066 30.8161 177.384 30.6561C177.721 30.5363 178.022 30.3336 178.262 30.0666C178.516 29.8292 178.717 29.5398 178.852 29.2179C178.986 28.896 179.051 28.5489 179.042 28.1997C179.052 27.8297 178.986 27.4615 178.847 27.1189C178.698 26.7957 178.5 26.4975 178.262 26.2346ZM178.164 28.9857C178.085 29.2264 177.952 29.445 177.774 29.6242C177.596 29.8034 177.379 29.938 177.14 30.0174C176.9 30.1464 176.632 30.2139 176.36 30.2139C176.088 30.2139 175.82 30.1464 175.58 30.0174C175.367 29.9156 175.17 29.7832 174.995 29.6244C174.805 29.4269 174.655 29.1931 174.556 28.9366C174.451 28.6883 174.402 28.4201 174.41 28.1505C174.416 27.8822 174.465 27.6167 174.556 27.3645C174.657 27.135 174.788 26.9201 174.946 26.7258C175.124 26.5353 175.34 26.3846 175.58 26.2837C176.082 26.0864 176.639 26.0864 177.14 26.2837C177.38 26.3846 177.596 26.5353 177.774 26.7258C177.932 26.9201 178.063 27.135 178.164 27.3645C178.264 27.6314 178.313 27.9146 178.31 28.1997C178.31 28.4685 178.26 28.7349 178.164 28.9857Z" fill="#F4F4F4"/>
<path d="M183.918 26.3819C183.659 26.1032 183.343 25.8852 182.991 25.7433C182.574 25.572 182.126 25.4885 181.675 25.4976H180.261V30.8035H181.919C182.265 30.8063 182.61 30.7566 182.942 30.6561C183.246 30.523 183.526 30.3404 183.771 30.1157C184.019 29.898 184.218 29.6301 184.356 29.3296C184.473 28.9807 184.538 28.6166 184.552 28.2488C184.555 27.9155 184.505 27.5839 184.405 27.2662C184.281 26.9518 184.117 26.6546 183.918 26.3819ZM183.674 28.9857C183.587 29.2343 183.435 29.4549 183.235 29.6244C183.042 29.7834 182.829 29.9156 182.601 30.0174C182.35 30.1019 182.085 30.1353 181.821 30.1157H180.943V26.1854H181.87C182.121 26.1867 182.369 26.2367 182.601 26.3328C182.839 26.4152 183.055 26.5494 183.235 26.7258C183.434 26.8766 183.586 27.081 183.674 27.3154C183.778 27.598 183.828 27.8982 183.82 28.1997C183.828 28.4693 183.778 28.7374 183.674 28.9857Z" fill="#F4F4F4"/>
<path d="M188.94 28.9366C188.928 29.1624 188.861 29.3818 188.745 29.5753C188.65 29.7669 188.496 29.9221 188.306 30.0174C188.092 30.1179 187.859 30.1683 187.623 30.1648C187.403 30.1679 187.186 30.1173 186.989 30.0174C186.799 29.9221 186.645 29.7669 186.551 29.5753C186.413 29.3919 186.344 29.1659 186.355 28.9366V25.4976H185.673V28.9857C185.654 29.3305 185.739 29.6729 185.917 29.9683C186.097 30.2577 186.349 30.4948 186.648 30.6561C186.95 30.8113 187.284 30.8952 187.623 30.9017C187.979 30.9029 188.33 30.8187 188.647 30.6561C188.941 30.5053 189.18 30.2645 189.33 29.9683C189.522 29.6771 189.623 29.3352 189.622 28.9857V25.4976H188.94V28.9366Z" fill="#F4F4F4"/>
<path d="M194.108 30.0665C193.879 30.1727 193.629 30.2232 193.377 30.2139C193.103 30.2259 192.832 30.1576 192.597 30.0174C192.369 29.9156 192.156 29.7834 191.963 29.6244C191.803 29.4402 191.686 29.2218 191.621 28.9857C191.522 28.7188 191.472 28.4356 191.475 28.1505C191.476 27.8817 191.526 27.6154 191.621 27.3645C191.722 27.1349 191.854 26.9201 192.012 26.7258C192.19 26.5353 192.406 26.3846 192.645 26.2837C192.874 26.1775 193.125 26.127 193.377 26.1363C193.612 26.1375 193.844 26.1877 194.059 26.2837C194.261 26.3323 194.446 26.434 194.596 26.5784L194.84 25.8906C194.66 25.7345 194.44 25.6324 194.206 25.5958C193.925 25.4906 193.627 25.4406 193.328 25.4485C192.976 25.432 192.625 25.4994 192.304 25.645C191.991 25.7832 191.709 25.9838 191.475 26.2345C191.225 26.4785 191.04 26.7829 190.939 27.1188C190.8 27.4615 190.733 27.8296 190.744 28.1997C190.716 28.5422 190.762 28.8867 190.88 29.2092C190.998 29.5317 191.185 29.8243 191.426 30.0665C191.67 30.306 191.95 30.505 192.255 30.6561C192.616 30.7894 192.994 30.872 193.377 30.9017L194.059 30.8035L194.547 30.6069C194.686 30.5622 194.818 30.4959 194.937 30.4104L194.644 29.7718C194.483 29.8985 194.302 29.9981 194.108 30.0665Z" fill="#F4F4F4"/>
<path d="M195.717 26.1854H197.131V30.8526H197.814V26.1854H199.228V25.4976H195.717V26.1854Z" fill="#F4F4F4"/>
<path d="M201.032 25.4976H200.35V30.8084H201.032V25.4976Z" fill="#F4F4F4"/>
<path d="M206.834 26.2346C206.582 25.9834 206.284 25.7833 205.957 25.645C205.627 25.5278 205.282 25.4615 204.933 25.4485C204.583 25.4566 204.237 25.523 203.909 25.645C203.582 25.7833 203.284 25.9834 203.031 26.2346C202.793 26.4975 202.595 26.7957 202.446 27.1189C202.311 27.4454 202.245 27.7967 202.251 28.1505C202.236 28.5209 202.303 28.8901 202.446 29.2314C202.583 29.5611 202.782 29.8612 203.031 30.1157C203.273 30.3681 203.575 30.5541 203.909 30.6561C204.227 30.8161 204.577 30.8994 204.933 30.8994C205.288 30.8994 205.639 30.8161 205.957 30.6561C206.293 30.5363 206.595 30.3336 206.834 30.0666C207.089 29.8292 207.29 29.5398 207.424 29.2179C207.559 28.896 207.624 28.5489 207.615 28.1997C207.625 27.8297 207.559 27.4615 207.42 27.1189C207.27 26.7957 207.073 26.4975 206.834 26.2346ZM206.737 28.9857C206.658 29.2264 206.524 29.445 206.347 29.6242C206.169 29.8034 205.952 29.938 205.713 30.0174C205.473 30.1464 205.205 30.2139 204.933 30.2139C204.661 30.2139 204.393 30.1464 204.153 30.0174C203.94 29.9156 203.743 29.7832 203.568 29.6244C203.377 29.4269 203.228 29.1931 203.129 28.9366C203.024 28.6883 202.974 28.4201 202.983 28.1505C202.988 27.8822 203.038 27.6167 203.129 27.3645C203.23 27.135 203.361 26.9201 203.519 26.7258C203.697 26.5353 203.913 26.3846 204.153 26.2837C204.654 26.0864 205.211 26.0864 205.713 26.2837C205.953 26.3846 206.169 26.5353 206.347 26.7258C206.505 26.9201 206.636 27.135 206.737 27.3645C206.836 27.6314 206.886 27.9146 206.883 28.1997C206.882 28.4685 206.833 28.7349 206.737 28.9857Z" fill="#F4F4F4"/>
<path d="M212.734 29.3788L208.882 25.3503H208.833V30.8526H209.565L209.516 27.0206L213.417 31V25.4976H212.734V29.3788Z" fill="#F4F4F4"/>
<path d="M217.854 28.7401C217.798 28.5684 217.697 28.4155 217.561 28.2979L217.122 28.0032L216.635 27.8067L216.098 27.561L215.66 27.2663C215.607 27.2064 215.566 27.1364 215.541 27.0604C215.516 26.9844 215.507 26.9039 215.513 26.8241C215.501 26.7271 215.517 26.6285 215.561 26.5409C215.604 26.4534 215.672 26.3809 215.757 26.3328C215.952 26.1832 216.196 26.1131 216.44 26.1363C216.655 26.1245 216.871 26.158 217.074 26.2346L217.659 26.4802L217.902 25.8907L217.22 25.5959L216.342 25.4977C216.053 25.4818 215.765 25.55 215.513 25.6941C215.281 25.7865 215.09 25.9613 214.977 26.1854C214.833 26.4025 214.764 26.6617 214.782 26.9224C214.778 27.113 214.828 27.3008 214.928 27.4628C214.984 27.6474 215.106 27.8048 215.269 27.9049L215.708 28.1997L216.245 28.3962L216.732 28.5927C216.884 28.6802 217.016 28.7971 217.122 28.9366C217.189 29.0744 217.222 29.2257 217.22 29.3788C217.231 29.5549 217.179 29.7292 217.074 29.8701C216.978 30.0078 216.841 30.1111 216.683 30.1648L216.196 30.2631L215.708 30.1648L215.221 30.0174L214.831 29.7718L214.538 30.3122L214.977 30.607L215.562 30.8035L216.245 30.9018C216.563 30.8943 216.877 30.8277 217.171 30.7052C217.412 30.5617 217.614 30.3589 217.756 30.1157C217.9 29.8986 217.969 29.6394 217.951 29.3788C217.976 29.1609 217.942 28.9404 217.854 28.7401Z" fill="#F4F4F4"/>
<path d="M33.8872 6.53407L47.6371 8.40094V16.6054L33.8872 18.4723V6.53407ZM33.107 3.97939C32.6673 3.97939 32.2457 4.15538 31.9348 4.46863C31.6239 4.78188 31.4492 5.20675 31.4492 5.64976V19.3566C31.4492 19.7996 31.6239 20.2244 31.9348 20.5377C32.2457 20.8509 32.6673 21.0269 33.107 21.0269H33.3508L48.6123 18.9635C49.0173 18.9152 49.3905 18.7181 49.6603 18.4099C49.9302 18.1018 50.0778 17.7042 50.075 17.2932V7.71316C50.0676 7.30512 49.9164 6.91303 49.6484 6.60702C49.3804 6.30101 49.0131 6.10102 48.6123 6.04278L33.3508 3.97939H33.107Z" fill="#F4F4F4"/>
<path d="M25.4521 0H25.2083L1.4141 3.19334C1.0179 3.25267 0.656419 3.45451 0.396485 3.76157C0.136551 4.06863 -0.00425342 4.46016 9.79178e-05 4.86372V20.1426C-0.00425342 20.5462 0.136551 20.9377 0.396485 21.2448C0.656419 21.5518 1.0179 21.7537 1.4141 21.813L5.11976 22.3043C5.15848 22.3215 5.20098 22.3283 5.24308 22.3239C5.28517 22.3195 5.32542 22.3042 5.35986 22.2794C5.3943 22.2546 5.42174 22.2213 5.43948 22.1826C5.45723 22.1438 5.46467 22.1011 5.46107 22.0586V20.0935C5.46107 20.0284 5.43538 19.9659 5.38966 19.9198C5.34394 19.8737 5.28193 19.8479 5.21727 19.8479L2.43803 19.4548V5.5515L24.672 2.55468V22.4517L13.9451 21.0269C13.9092 21.0196 13.8722 21.0204 13.8368 21.0294C13.8013 21.0384 13.7683 21.0553 13.7402 21.0789C13.7121 21.1025 13.6896 21.1322 13.6745 21.1657C13.6593 21.1992 13.6518 21.2357 13.6525 21.2726V23.2377C13.6525 23.336 13.75 23.4834 13.8476 23.4834L25.2083 25.0064H25.4521C25.8918 25.0064 26.3135 24.8304 26.6244 24.5171C26.9353 24.2039 27.1099 23.779 27.1099 23.336V1.67038C27.1099 1.22737 26.9353 0.802499 26.6244 0.489245C26.3135 0.175991 25.8918 0 25.4521 0Z" fill="#F4F4F4"/>
<path d="M13.1158 29.8701C13.1158 29.8701 13.0671 29.6735 12.7258 29.7227H12.5795C12.5795 29.7357 12.5744 29.7482 12.5652 29.7574C12.5561 29.7666 12.5437 29.7718 12.5307 29.7718C12.5178 29.7718 12.5054 29.7666 12.4963 29.7574C12.4871 29.7482 12.482 29.7357 12.482 29.7227C12.3359 29.6037 12.2191 29.4524 12.1407 29.2805C12.0496 29.0283 12.0002 28.7628 11.9944 28.4945C11.9944 27.9049 11.9456 25.8907 11.9456 25.8907C11.9009 25.819 11.8314 25.7666 11.7506 25.7433L11.6531 23.0412V22.5008L11.7994 21.3217L11.8969 19.5531C11.898 19.1417 11.8654 18.7309 11.7994 18.3249L11.5068 17.0967V16.7037L11.7018 16.6054C11.7159 16.6004 11.7286 16.5923 11.7391 16.5816C11.7495 16.5709 11.7574 16.558 11.7621 16.5437C11.7668 16.5295 11.7682 16.5144 11.7662 16.4995C11.7642 16.4847 11.7589 16.4705 11.7506 16.458C11.6531 16.3106 11.263 15.1807 11.263 15.1807L11.1167 14.9351C11.0264 14.718 10.9928 14.4811 11.0192 14.2472C11.0192 14.2472 11.2143 14.7877 11.4581 14.8368H11.8481C11.9972 14.7644 12.1176 14.6431 12.1894 14.4929C12.2419 14.2311 12.225 13.96 12.1407 13.7068C12.1317 13.5336 12.0816 13.3651 11.9944 13.2156C11.6076 12.5178 11.2656 11.7957 10.9705 11.0539C11.0241 10.8961 11.0408 10.728 11.0192 10.5626C10.9705 10.3661 11.068 9.92396 10.9705 9.77657C10.9461 9.66782 10.8959 9.56665 10.8242 9.48179V9.38352C10.8729 9.33439 10.8729 9.33442 10.8729 9.28529V9.08876C10.8242 8.99051 10.8729 8.89226 10.8729 8.79401C10.8729 8.69575 10.9217 8.74487 10.9217 8.69574V8.49922C10.9217 8.45009 11.068 8.10619 10.9705 7.90967C10.7189 7.49475 10.3165 7.19513 9.84902 7.07451C9.65575 7.06093 9.46206 7.09393 9.28399 7.17083C9.10592 7.24772 8.9486 7.36627 8.82508 7.51665C8.518 7.99842 8.2568 8.50836 8.04495 9.03965L8.23998 8.94139L8.04495 9.28529C8.02602 9.34839 7.99467 9.40701 7.95279 9.45765C7.9109 9.50829 7.85934 9.54991 7.80115 9.58005C7.65488 9.6783 7.36232 9.58004 7.21604 9.48179C7.33598 9.63835 7.51008 9.74362 7.70363 9.77657C7.70363 9.77657 7.41108 10.2187 7.21604 10.2187C7.02101 10.2187 6.9235 10.2678 6.82598 10.1204C6.82598 10.1696 6.87473 10.4152 6.97225 10.4152C7.06977 10.4152 6.92349 10.5626 6.77722 10.4152H6.72846C6.77722 10.4152 6.77722 10.5626 6.82598 10.5626L6.6797 10.71C6.6797 10.71 6.53343 10.8574 6.58219 10.9556L5.75328 12.0365C5.36591 12.4936 5.02303 12.9871 4.72936 13.5103L4.58308 13.8542C4.58308 13.8542 4.4368 14.0999 4.58308 14.2472C4.72935 14.3946 5.0219 14.9842 5.0219 14.9842C5.20742 15.2815 5.4196 15.5611 5.65577 15.8194C6.24087 16.458 6.77722 16.9493 6.77722 16.9493C6.77722 16.9493 6.82598 17.0476 6.9235 16.9002L7.06977 16.7528H7.80115V16.9002C7.59997 17.4745 7.45304 18.0667 7.36232 18.6688C7.36276 19.2107 7.39532 19.7521 7.45984 20.29C7.50859 20.6831 7.55736 21.3709 7.55736 21.3709C7.61165 22.1076 7.59532 22.848 7.5086 23.5816C7.41108 24.6133 7.45984 23.7782 7.31357 25.4977C7.31357 25.5468 7.21604 25.5468 7.21604 25.5959C7.10005 26.4284 7.11651 27.2742 7.2648 28.1014C7.31557 28.3277 7.34818 28.5577 7.36232 28.7892C7.42205 28.997 7.45483 29.2117 7.45984 29.4279V29.7227L7.70363 29.8209C7.86521 29.8459 8.02963 29.8459 8.19122 29.8209C8.23997 29.8209 8.19122 29.7718 8.19122 29.7718H8.38626L8.9226 29.6736L9.06887 29.477C9.06887 29.477 9.11763 29.4279 9.06887 29.3297V29.2314C9.02012 29.1331 8.97136 29.084 8.82508 29.1331H8.63005C8.5422 28.5634 8.5422 27.9834 8.63005 27.4136C8.63005 27.4136 8.6788 26.0872 8.6788 25.7924C8.6788 25.4976 8.6788 25.7433 8.58129 25.7433V24.9081C8.57633 24.7753 8.5928 24.6426 8.63005 24.5151L8.77633 23.9747C8.8697 23.7922 8.91977 23.5904 8.9226 23.3851V22.8938C8.99797 22.4221 9.04681 21.9464 9.06887 21.4691C9.07078 21.0741 9.10339 20.6799 9.16639 20.29C9.26391 19.9461 9.36143 19.4057 9.36143 19.4057L9.45894 19.2092C9.45894 19.1962 9.46409 19.1837 9.47323 19.1745C9.48237 19.1653 9.49477 19.1601 9.50771 19.1601C9.52064 19.1601 9.53304 19.1653 9.54218 19.1745C9.55133 19.1837 9.55646 19.1962 9.55646 19.2092H9.7515C9.89323 19.501 9.9761 19.8183 9.99529 20.1426C10.0216 20.4246 10.0706 20.7039 10.1416 20.9778C10.209 21.499 10.2253 22.0256 10.1903 22.5499C10.1801 23.3223 10.229 24.0942 10.3366 24.859C10.3854 25.2029 10.4341 25.5468 10.4829 25.7924H10.3854L10.5804 27.561L10.7754 28.8875C10.8146 28.9805 10.8313 29.0815 10.8242 29.1823V29.477C10.7754 29.477 10.7267 29.5753 10.7267 29.5753V29.8701C10.7267 29.8701 10.7754 30.0666 10.8729 30.0666H11.3118C11.3247 30.0666 11.3371 30.0614 11.3463 30.0522C11.3554 30.043 11.3605 30.0305 11.3605 30.0174C11.3605 29.9192 11.8481 30.1157 11.8481 30.1157C12.1307 30.2094 12.4296 30.2429 12.7258 30.214C13.1646 30.3122 13.1158 29.8701 13.1158 29.8701ZM8.04495 15.3772C7.95765 15.5655 7.8922 15.7633 7.84991 15.9667C7.84991 16.0199 7.8328 16.0716 7.80115 16.1141C7.80115 16.1632 7.80115 16.1632 7.75239 16.2124H7.65488C7.60612 16.2124 7.55735 16.2615 7.45984 16.2124L7.16729 16.0159H6.87473C6.82598 16.0159 6.72846 16.0159 6.72846 15.9667C6.60536 15.6819 6.44105 15.417 6.24087 15.1807C6.18478 15.092 6.15128 14.9908 6.14335 14.8859C6.12116 14.836 6.08747 14.7921 6.04506 14.7579C6.00266 14.7237 5.95278 14.7003 5.89956 14.6894H5.85081L5.70453 14.542C5.70453 14.542 5.65577 14.542 5.70453 14.3946C5.69802 14.2626 5.68172 14.1312 5.65577 14.0016C5.65577 14.0016 5.60701 13.9525 5.70453 13.8542C5.80205 13.756 5.80204 13.756 5.80204 13.756L5.99708 13.4612C6.12638 13.2245 6.29081 13.0091 6.48466 12.8225L6.77722 12.626C6.83693 12.6024 6.90269 12.5993 6.96436 12.617C7.02603 12.6348 7.08019 12.6725 7.11853 12.7243C7.30173 12.9813 7.44936 13.2623 7.55736 13.5594C7.55736 13.6086 7.60612 13.7559 7.55736 13.8051C7.5086 13.8542 7.5086 13.9033 7.55736 14.0016L7.99618 14.6403C8.10693 14.8702 8.12442 15.1345 8.04495 15.3772ZM10.5804 10.0713H10.4341C10.3854 10.0713 10.3366 9.97308 10.3366 9.92395C10.3366 9.87482 10.3854 9.72743 10.3854 9.72743C10.3983 9.72743 10.4107 9.72225 10.4198 9.71303C10.429 9.70382 10.4341 9.69134 10.4341 9.67831C10.4341 9.72744 10.5316 9.72745 10.5316 9.77657C10.5316 9.8257 10.5804 10.0713 10.5804 10.0713Z" fill="#F4F4F4"/>
</g>
<defs>
<clipPath id="clip0_255_663">
<rect width="218" height="31" fill="white"/>
</clipPath>
</defs>
</svg>
