<svg width="155" height="71" viewBox="0 0 155 71" fill="none" xmlns="http://www.w3.org/2000/svg">
<g clip-path="url(#clip0_250_2869)">
<path d="M9.96476 58.8162C9.29795 59.0729 8.58839 59.2056 7.87219 59.2077C7.04704 59.2304 6.22795 59.0628 5.48067 58.7184C4.80727 58.455 4.20891 58.0352 3.73685 57.4951C3.22532 56.9806 2.83425 56.3628 2.59093 55.6846C2.32977 54.9448 2.1951 54.1677 2.19235 53.3848C2.18171 52.5963 2.33426 51.8139 2.64075 51.085C2.93158 50.4044 3.33568 49.776 3.83651 49.2256C4.336 48.6938 4.9483 48.2762 5.63015 48.0023C6.30221 47.7013 7.03399 47.5509 7.77254 47.5619C8.45639 47.5644 9.13323 47.6974 9.76547 47.9534C10.3097 48.154 10.8281 48.4168 11.31 48.7363L12.157 46.8279C11.5459 46.4745 10.8934 46.1952 10.2139 45.9961C9.39404 45.7314 8.53589 45.5992 7.6729 45.6046C6.62932 45.5912 5.59432 45.7912 4.63368 46.1918C3.70692 46.5664 2.87397 47.134 2.19235 47.8555C1.47503 48.5578 0.929819 49.4112 0.597998 50.351C0.190149 51.3459 -0.0130584 52.4102 0.000113411 53.4826C0.00429252 54.4854 0.189865 55.4795 0.548172 56.4186C0.90564 57.3203 1.42922 58.1497 2.09269 58.8651C2.81091 59.5665 3.65565 60.1307 4.58385 60.5288C6.23708 61.1447 8.03578 61.2806 9.76547 60.9203C10.3022 60.8085 10.8215 60.6275 11.31 60.382L12.3563 59.8438L11.4595 58.0333C10.9957 58.3534 10.4937 58.6163 9.96476 58.8162Z" fill="#F4F4F4"/>
<path d="M25.9579 52.3568H17.8865V45.751H15.7939V60.9688H17.8865V54.2651H25.9579V60.9688H28.0504V45.751H25.9579V52.3568Z" fill="#F4F4F4"/>
<path d="M40.9548 53.8247C41.3567 53.3665 41.6616 52.8342 41.8516 52.2589C42.0317 51.6889 42.1159 51.0939 42.1007 50.4974C42.1322 49.7912 41.9957 49.0876 41.7021 48.4422C41.4357 47.8755 41.0443 47.3741 40.5562 46.9743C40.036 46.5763 39.4446 46.2776 38.8124 46.0935C38.1031 45.8728 37.3642 45.7573 36.6202 45.751H32.5347V60.9687H34.6272V55.3905H37.3675L41.0544 61.0177H43.4459L39.5597 54.9012C40.0938 54.6383 40.5684 54.2722 40.9548 53.8247ZM36.8693 53.3843H34.6272V47.7082H37.0188C37.4855 47.6898 37.9491 47.7909 38.364 48.0018C38.7263 48.1602 39.0493 48.3939 39.3106 48.6869C39.5433 48.9577 39.7133 49.2749 39.8089 49.6166C39.9033 49.918 39.9536 50.231 39.9583 50.5463C39.9577 50.8779 39.9074 51.2077 39.8089 51.5249C39.7101 51.8409 39.5585 52.1385 39.3604 52.4057C39.0926 52.7249 38.751 52.9765 38.364 53.1397C37.8914 53.3327 37.38 53.4164 36.8693 53.3843Z" fill="#F4F4F4"/>
<path d="M58.7915 47.9042C57.6913 46.8088 56.2835 46.0607 54.748 45.7556C53.2125 45.4505 51.6192 45.6023 50.1721 46.1916C49.2298 46.6124 48.3698 47.192 47.6311 47.9042C46.9213 48.6317 46.3479 49.4764 45.9371 50.3997C45.1421 52.3299 45.1421 54.488 45.9371 56.4183C46.3479 57.3415 46.9213 58.1863 47.6311 58.9138C48.3738 59.5959 49.2342 60.1426 50.1721 60.5286C51.134 60.9252 52.1681 61.125 53.2113 61.1157C54.2706 61.1248 55.321 60.9252 56.3003 60.5286C58.2025 59.7514 59.7215 58.2771 60.5353 56.4183C61.1531 54.992 61.3172 53.4155 61.0059 51.896C60.6947 50.3765 59.9228 48.9849 58.7915 47.9042ZM58.5424 55.6354C58.2634 56.322 57.8581 56.9524 57.3466 57.4948C56.8194 58.0169 56.1931 58.4325 55.5032 58.7181C54.792 59.0389 54.0187 59.205 53.2362 59.205C52.4536 59.205 51.6803 59.0389 50.9692 58.7181C50.2945 58.4314 49.6848 58.0156 49.1756 57.4948C48.6425 56.9594 48.2196 56.3281 47.93 55.6354C47.6234 54.9237 47.4707 54.1572 47.4816 53.3845C47.4889 52.6179 47.6235 51.8576 47.8802 51.1336C48.1698 50.441 48.5927 49.8096 49.1258 49.2742C49.6492 48.7269 50.2826 48.2921 50.9858 47.9974C51.689 47.7026 52.4467 47.5542 53.2113 47.5616C53.9842 47.5474 54.7515 47.6924 55.4638 47.9874C56.1761 48.2824 56.8175 48.7208 57.3466 49.2742C57.8474 49.8246 58.2515 50.453 58.5424 51.1336C58.8436 51.8469 58.9961 52.6123 58.9908 53.3845C59.0017 54.1572 58.849 54.9237 58.5424 55.6354Z" fill="#F4F4F4"/>
<path d="M76.0799 56.7611L64.7203 45.311H64.6206V60.9692H66.7132L66.6634 50.1064L78.0231 61.4585H78.1227V45.7514H76.0301L76.0799 56.7611Z" fill="#F4F4F4"/>
<path d="M95.0625 47.9041C94.3237 47.192 93.4638 46.6124 92.5215 46.1915C91.5596 45.7949 90.5255 45.5951 89.4823 45.6043C88.423 45.5952 87.3726 45.7949 86.3933 46.1915C85.4666 46.6138 84.6233 47.1936 83.9021 47.9041C83.176 48.6186 82.6003 49.4666 82.2081 50.3996C81.4131 52.3298 81.4131 54.488 82.2081 56.4182C82.6003 57.3513 83.176 58.1993 83.9021 58.9138C84.6266 59.5951 85.4706 60.1421 86.3933 60.5285C87.3726 60.9251 88.423 61.1248 89.4823 61.1157C90.5411 61.1196 91.5905 60.9201 92.5713 60.5285C93.513 60.1547 94.3623 59.5874 95.0625 58.8648C95.7973 58.1659 96.3892 57.3355 96.8063 56.4182C97.6013 54.488 97.6013 52.3298 96.8063 50.3996C96.3778 49.4742 95.7876 48.6296 95.0625 47.9041ZM94.8134 55.6353C94.5359 56.3343 94.1115 56.9678 93.5678 57.4947C93.0683 58.0265 92.456 58.4441 91.7741 58.718C91.063 59.0388 90.2897 59.2049 89.5072 59.2049C88.7247 59.2049 87.9513 59.0388 87.2402 58.718C86.5503 58.4325 85.924 58.0169 85.3968 57.4947C84.8637 56.9593 84.4408 56.328 84.1512 55.6353C83.8617 54.9201 83.7259 54.1537 83.7526 53.3844C83.7354 52.6159 83.8708 51.8514 84.1512 51.1336C84.4224 50.4405 84.8305 49.8069 85.3521 49.2695C85.8737 48.732 86.4985 48.3012 87.1904 48.0019C87.9182 47.711 88.6965 47.5615 89.4823 47.5616C90.2524 47.5562 91.0155 47.7061 91.7243 48.0019C92.4305 48.2807 93.0615 48.7161 93.5678 49.2742C94.1009 49.8096 94.5238 50.4409 94.8134 51.1336C95.1146 51.8469 95.2671 52.6123 95.2618 53.3844C95.2727 54.1571 95.12 54.9236 94.8134 55.6353Z" fill="#F4F4F4"/>
<path d="M102.935 45.751H100.892V60.9688H110.807V59.0115H102.935V45.751Z" fill="#F4F4F4"/>
<path d="M116.238 54.314H123.362V52.3568H116.238V47.7082H124.259V45.751H114.195V60.9688H124.558V59.0115H116.238V54.314Z" fill="#F4F4F4"/>
<path d="M139.605 56.7611L128.245 45.311H128.146V60.9692H130.238L130.188 50.1064L141.548 61.4585H141.598V45.7514H139.555L139.605 56.7611Z" fill="#F4F4F4"/>
<path d="M154.701 54.9995C154.508 54.5261 154.2 54.1061 153.804 53.7762C153.431 53.4286 153.012 53.1323 152.559 52.8954C152.06 52.6997 151.612 52.455 151.114 52.3082L149.519 51.6232C149.053 51.4272 148.631 51.1448 148.274 50.7913C148.108 50.6333 147.978 50.4426 147.892 50.2318C147.806 50.0211 147.766 49.7949 147.776 49.568C147.766 49.2746 147.828 48.9832 147.959 48.719C148.089 48.4547 148.282 48.2255 148.523 48.0512C149.114 47.6722 149.811 47.484 150.516 47.5129C151.142 47.5184 151.763 47.6175 152.359 47.8065C152.96 47.9838 153.544 48.213 154.103 48.4915L154.85 46.9257C154.224 46.5556 153.555 46.2599 152.857 46.0449C152 45.7978 151.11 45.6823 150.217 45.7024C149.403 45.6893 148.599 45.8743 147.875 46.2407C147.21 46.564 146.643 47.0534 146.231 47.6597C145.819 48.2852 145.61 49.0191 145.633 49.7638C145.623 50.3423 145.76 50.9141 146.032 51.4274C146.311 51.874 146.664 52.271 147.078 52.6018C147.49 52.9195 147.942 53.1827 148.423 53.3847C148.903 53.6222 149.403 53.8186 149.918 53.9719C150.434 54.1611 150.934 54.3901 151.413 54.6569C151.829 54.883 152.201 55.1814 152.509 55.5377C152.772 55.9112 152.911 56.3556 152.907 56.8099C152.93 57.075 152.898 57.3419 152.812 57.5943C152.726 57.8467 152.589 58.0793 152.409 58.2779C152.106 58.6351 151.71 58.9055 151.263 59.0608C150.806 59.252 150.315 59.3518 149.818 59.3544C149.331 59.3372 148.847 59.2716 148.373 59.1587C147.892 59.0221 147.425 58.8419 146.978 58.6204C146.573 58.4323 146.189 58.2027 145.832 57.9354L144.886 59.5501C145.334 59.7948 145.783 60.0884 146.331 60.333C146.872 60.5872 147.44 60.784 148.025 60.9202C148.663 61.058 149.315 61.1236 149.968 61.1159C150.912 61.1516 151.851 60.9672 152.708 60.5777C153.421 60.2182 154.024 59.6775 154.452 59.0118C154.858 58.3479 155.066 57.5846 155.05 56.8099C155.078 56.188 154.959 55.5682 154.701 54.9995Z" fill="#F4F4F4"/>
<path d="M52.912 65.7642C52.5995 65.6249 52.2586 65.5579 51.9156 65.5685H50.4707V70.8531H51.1682V68.8958H51.9654C52.2549 68.9036 52.5431 68.8537 52.8124 68.749C53.0223 68.66 53.2095 68.5263 53.3604 68.3576C53.5069 68.2073 53.61 68.0215 53.6594 67.8193C53.7401 67.6171 53.7741 67.3999 53.759 67.1832C53.7765 66.8772 53.7075 66.5724 53.5597 66.3024C53.406 66.0613 53.1796 65.8732 52.912 65.7642ZM53.0117 67.5257C52.963 67.6341 52.8956 67.7335 52.8124 67.8193C52.7626 67.9661 52.6131 68.015 52.5135 68.1129L51.9654 68.2108H51.1682V66.2046H52.0152L52.5135 66.3024C52.6131 66.4003 52.7626 66.4492 52.8124 66.5471C52.9075 66.6427 52.9761 66.7606 53.0117 66.8896C53.0117 66.9875 53.0615 67.0853 53.0615 67.1832C53.0615 67.2811 53.0117 67.3789 53.0117 67.5257Z" fill="#F4F4F4"/>
<path d="M57.8448 68.3575C57.9633 68.1889 58.0635 68.0084 58.1438 67.8193C58.201 67.6115 58.2345 67.3982 58.2434 67.1832C58.2469 66.9467 58.1958 66.7125 58.094 66.4981C57.9903 66.2995 57.8558 66.1179 57.6954 65.9599C57.5179 65.824 57.3147 65.7242 57.0975 65.6663C56.841 65.5822 56.57 65.5489 56.3003 65.5684H54.9053V70.853H55.6028V68.8958H56.5494L57.8448 70.853H58.6918L57.3466 68.7001L57.8448 68.3575ZM56.4 68.2107H55.6028V66.2045H56.4498L56.948 66.3024L57.247 66.5471C57.3318 66.6499 57.3991 66.7656 57.4463 66.8896C57.4463 66.9874 57.4961 67.0853 57.4961 67.2321C57.4961 67.3789 57.4463 67.4278 57.4463 67.5257C57.4107 67.6547 57.3421 67.7726 57.247 67.8682C57.1711 67.9743 57.0679 68.0587 56.948 68.1129L56.4 68.2107Z" fill="#F4F4F4"/>
<path d="M64.0227 66.3026C63.7647 66.0524 63.4603 65.8531 63.1259 65.7154C62.8019 65.5535 62.4432 65.4696 62.0796 65.4707C61.7169 65.4765 61.3598 65.56 61.0334 65.7154C60.699 65.8531 60.3946 66.0524 60.1365 66.3026C59.8937 66.547 59.6919 66.8278 59.5387 67.1344C59.3965 67.4757 59.3286 67.8424 59.3394 68.2109C59.3227 68.564 59.391 68.9161 59.5387 69.2385C59.6764 69.5682 59.8795 69.8677 60.1361 70.1197C60.3927 70.3717 60.6977 70.5711 61.0334 70.7064C61.3701 70.8231 61.7228 70.8891 62.0796 70.9022C62.4527 70.889 62.8219 70.823 63.1758 70.7064C63.4879 70.5559 63.7738 70.3577 64.0227 70.1192C64.2775 69.8658 64.4804 69.5668 64.6206 69.2385C64.7789 68.9178 64.8639 68.5672 64.8697 68.2109C64.8648 67.8389 64.7799 67.472 64.6206 67.1344C64.4674 66.8278 64.2656 66.547 64.0227 66.3026ZM63.9231 68.9938C63.8199 69.2224 63.6858 69.4364 63.5245 69.6299C63.3424 69.8197 63.1218 69.9697 62.8768 70.0703C62.6238 70.1711 62.3527 70.221 62.0796 70.2171C61.8228 70.2198 61.5683 70.1698 61.3323 70.0703C61.0802 69.983 60.8565 69.8309 60.6846 69.6299C60.4914 69.4511 60.3386 69.2344 60.2362 68.9938C60.1383 68.7439 60.0877 68.4786 60.0867 68.2109C60.0833 67.6874 60.2787 67.1815 60.6348 66.7919C60.8168 66.6021 61.0375 66.452 61.2825 66.3515C61.5262 66.219 61.8011 66.1515 62.0796 66.1558C62.3527 66.1519 62.6238 66.2018 62.8768 66.3026L63.5245 66.743C63.6862 66.9539 63.8202 67.184 63.9231 67.428C64.0653 67.6645 64.1345 67.9365 64.1224 68.2109C64.1268 68.4845 64.058 68.7544 63.9231 68.9938Z" fill="#F4F4F4"/>
<path d="M69.8022 66.4006C69.5336 66.15 69.232 65.9361 68.9054 65.7645C68.4561 65.6173 67.9835 65.551 67.5103 65.5687H66.0654V70.8533H67.8092C68.1498 70.84 68.4861 70.774 68.8057 70.6576C69.1314 70.5546 69.4236 70.3689 69.6527 70.1194C69.9058 69.9025 70.1095 69.6358 70.2506 69.3365C70.3928 68.9952 70.4607 68.6285 70.4499 68.26C70.4493 67.9283 70.3989 67.5986 70.3004 67.2813C70.1732 66.9681 70.0057 66.6721 69.8022 66.4006ZM69.5531 69.0429C69.4631 69.2763 69.3076 69.4798 69.1046 69.63C68.9282 69.815 68.7046 69.9502 68.457 70.0215C68.2039 70.1223 67.9328 70.1722 67.6598 70.1683H66.763V66.2048H67.7096C67.966 66.2061 68.2198 66.2559 68.457 66.3516C68.6995 66.4337 68.9207 66.5674 69.1046 66.7431C69.3076 66.8933 69.4631 67.0969 69.5531 67.3303C69.6598 67.6118 69.7105 67.9108 69.7025 68.211C69.7054 68.495 69.6547 68.777 69.5531 69.0429Z" fill="#F4F4F4"/>
<path d="M74.9344 68.9447C74.9552 69.1741 74.8836 69.4025 74.7351 69.5808C74.6384 69.7716 74.481 69.9262 74.2866 70.0211C74.0819 70.1588 73.8371 70.2275 73.5891 70.2169C73.3576 70.2204 73.1309 70.1519 72.9414 70.0211C72.7471 69.9262 72.5897 69.7716 72.493 69.5808C72.368 69.3909 72.299 69.1707 72.2937 68.9447V65.5684H71.5962V68.9936C71.5884 69.3358 71.6744 69.6738 71.8453 69.9722C72.0295 70.2605 72.2871 70.4966 72.5927 70.6573C72.9017 70.8118 73.2424 70.8955 73.5891 70.9019C73.9527 70.903 74.3113 70.8192 74.6354 70.6573C74.9409 70.4966 75.1985 70.2605 75.3828 69.9722C75.5537 69.6738 75.6397 69.3358 75.6319 68.9936V65.5684H74.9344V68.9447Z" fill="#F4F4F4"/>
<path d="M80.2151 70.0701C79.9969 70.1702 79.7584 70.2204 79.5176 70.2169C79.2285 70.2198 78.9413 70.17 78.6706 70.0701C78.433 69.9817 78.2257 69.829 78.0728 69.6297C77.8939 69.4491 77.7578 69.2319 77.6742 68.9936C77.5763 68.7438 77.5256 68.4785 77.5247 68.2107C77.5218 67.9268 77.5725 67.6447 77.6742 67.3789C77.7766 67.1383 77.9294 66.9216 78.1226 66.7428C78.2755 66.5435 78.4828 66.3908 78.7204 66.3024C78.9576 66.2067 79.2114 66.1568 79.4678 66.1556C79.7086 66.1521 79.9471 66.2023 80.1653 66.3024L80.7134 66.596L81.0123 65.9109L80.3148 65.6173C80.0282 65.5125 79.7237 65.4627 79.418 65.4705C79.0552 65.4763 78.6982 65.5598 78.3717 65.7152C78.046 65.8182 77.7539 66.0039 77.5247 66.2535C77.2687 66.4965 77.0801 66.7996 76.9766 67.1342C76.8345 67.4755 76.7666 67.8422 76.7774 68.2107C76.7607 68.5639 76.829 68.9159 76.9766 69.2383C77.0813 69.5616 77.2507 69.861 77.4749 70.1191C77.7349 70.3546 78.0396 70.5376 78.3717 70.6573C78.7139 70.8182 79.0884 70.9018 79.4678 70.902L80.1653 70.8041L80.7134 70.6573L81.0621 70.4616L80.7632 69.8255C80.6008 69.9452 80.4138 70.0287 80.2151 70.0701Z" fill="#F4F4F4"/>
<path d="M81.8594 66.2046H83.2544V70.8042H84.0018V66.2046H85.4467V65.5195H81.8594V66.2046Z" fill="#F4F4F4"/>
<path d="M87.2903 65.5195H86.5928V70.8091H87.2903V65.5195Z" fill="#F4F4F4"/>
<path d="M93.219 66.3026C92.961 66.0524 92.6566 65.8531 92.3222 65.7154C91.9982 65.5535 91.6395 65.4696 91.2759 65.4707C90.9132 65.4765 90.5561 65.56 90.2296 65.7154C89.8953 65.8531 89.5909 66.0524 89.3328 66.3026C89.09 66.547 88.8882 66.8278 88.7349 67.1344C88.5928 67.4757 88.5249 67.8424 88.5357 68.2109C88.519 68.564 88.5873 68.9161 88.7349 69.2385C88.8727 69.5682 89.0758 69.8677 89.3324 70.1197C89.589 70.3717 89.8939 70.5711 90.2296 70.7064C90.5664 70.8231 90.9191 70.8891 91.2759 70.9022C91.649 70.889 92.0182 70.823 92.3721 70.7064C92.6842 70.5559 92.9701 70.3577 93.219 70.1192C93.4738 69.8658 93.6767 69.5668 93.8169 69.2385C93.9752 68.9178 94.0602 68.5672 94.066 68.2109C94.0611 67.8389 93.9762 67.472 93.8169 67.1344C93.6637 66.8278 93.4619 66.547 93.219 66.3026ZM93.1194 68.9938C93.0162 69.2224 92.8821 69.4364 92.7208 69.6299C92.5387 69.8197 92.3181 69.9697 92.0731 70.0703C91.82 70.1711 91.549 70.221 91.2759 70.2171C91.0191 70.2198 90.7646 70.1698 90.5286 70.0703C90.2765 69.983 90.0528 69.8309 89.8809 69.6299C89.6877 69.4511 89.5349 69.2344 89.4325 68.9938C89.3346 68.7439 89.284 68.4786 89.283 68.2109C89.2796 67.6874 89.475 67.1815 89.8311 66.7919C90.0131 66.6021 90.2338 66.452 90.4788 66.3515C90.7225 66.219 90.9974 66.1515 91.2759 66.1558C91.549 66.1519 91.82 66.2018 92.0731 66.3026L92.7208 66.743C92.8825 66.9539 93.0165 67.184 93.1194 67.428C93.2616 67.6645 93.3308 67.9365 93.3187 68.2109C93.3231 68.4845 93.2543 68.7544 93.1194 68.9938Z" fill="#F4F4F4"/>
<path d="M99.1978 69.3854L95.2617 65.373H95.2119V70.8045H95.9593V67.0367L99.8953 71.0002H99.9451V65.5198H99.1978V69.3854Z" fill="#F4F4F4"/>
<path d="M104.479 68.7491C104.415 68.5819 104.313 68.4313 104.18 68.3087L103.732 68.0151L103.234 67.8194L102.686 67.5748C102.509 67.5244 102.353 67.4219 102.237 67.2812C102.187 67.229 102.148 67.1675 102.122 67.1003C102.097 67.033 102.085 66.9615 102.088 66.8897C102.086 66.7874 102.107 66.686 102.15 66.5928C102.193 66.4997 102.257 66.4172 102.337 66.3515C102.538 66.2066 102.786 66.1372 103.034 66.1557L103.682 66.2536L104.28 66.4983L104.529 65.96C104.326 65.8048 104.086 65.7037 103.832 65.6664C103.545 65.5616 103.241 65.5118 102.935 65.5196C102.64 65.509 102.347 65.5766 102.088 65.7154C101.872 65.838 101.685 66.0049 101.54 66.2047C101.392 66.4209 101.322 66.6791 101.34 66.9386C101.343 67.1431 101.394 67.3441 101.49 67.5258C101.579 67.6777 101.697 67.8108 101.839 67.9173L102.287 68.2109L102.835 68.4066C103.015 68.4578 103.184 68.5407 103.333 68.6513C103.486 68.7205 103.622 68.8206 103.732 68.9449C103.826 69.0734 103.878 69.227 103.881 69.3852C103.889 69.4764 103.875 69.5681 103.841 69.6531C103.806 69.738 103.752 69.8139 103.682 69.8745C103.585 70.0117 103.445 70.1146 103.284 70.1682L102.785 70.266H102.287L101.789 70.0703L101.39 69.8256L101.091 70.3639L101.59 70.6575C101.775 70.7589 101.977 70.8252 102.187 70.8532L102.835 70.951C103.161 70.9485 103.483 70.8819 103.782 70.7553C104.014 70.6149 104.217 70.4322 104.38 70.2171C104.537 69.9847 104.623 69.7131 104.629 69.4342C104.64 69.197 104.589 68.9609 104.479 68.7491Z" fill="#F4F4F4"/>
<path d="M86.593 6.55667L100.643 8.41607V16.5877L86.593 18.3981V6.55667ZM85.7958 4.01221C85.3465 4.01221 84.9156 4.18749 84.598 4.49949C84.2803 4.81149 84.1018 5.23463 84.1018 5.67587V19.2789C84.0951 19.5015 84.134 19.7231 84.2162 19.9306C84.2983 20.1382 84.422 20.3274 84.58 20.4871C84.738 20.6468 84.927 20.7737 85.1358 20.8604C85.3447 20.947 85.5691 20.9916 85.7958 20.9915H86.0449L101.64 18.9364C102.049 18.8997 102.43 18.7135 102.707 18.4145C102.983 18.1156 103.136 17.7257 103.134 17.3217V7.73101C103.137 7.32168 102.986 6.92566 102.711 6.61873C102.435 6.31179 102.053 6.1155 101.64 6.06735L86.0449 4.01221H85.7958Z" fill="#F4F4F4"/>
<path d="M77.9731 0H77.724L53.4103 3.18056C52.9964 3.22871 52.6151 3.42503 52.3393 3.73197C52.0635 4.03891 51.9127 4.43493 51.9156 4.84426V20.062C51.9232 20.4684 52.0777 20.8589 52.3515 21.1637C52.6253 21.4685 53.0006 21.6677 53.4103 21.7257L57.1968 22.215C57.238 22.2244 57.281 22.2233 57.3216 22.2119C57.3623 22.2005 57.3993 22.1791 57.4292 22.1497C57.4591 22.1203 57.4809 22.084 57.4926 22.044C57.5042 22.0041 57.5053 21.9619 57.4958 21.9214V20.0131C57.4928 19.951 57.4727 19.8909 57.4376 19.8392C57.4025 19.7874 57.3537 19.7461 57.2965 19.7195L54.4067 19.377V5.52928L77.1759 2.59338V22.4107L66.2148 20.9428C66.1736 20.9334 66.1307 20.9345 66.09 20.9459C66.0494 20.9574 66.0123 20.9788 65.9824 21.0081C65.9525 21.0375 65.9307 21.0739 65.9191 21.1138C65.9074 21.1537 65.9063 21.1959 65.9159 21.2364V23.1447C65.9189 23.2068 65.939 23.2669 65.9741 23.3187C66.0092 23.3704 66.058 23.4118 66.1152 23.4383L77.724 24.9552H77.9731C78.4224 24.9552 78.8533 24.7799 79.1709 24.4679C79.4886 24.1559 79.6671 23.7327 79.6671 23.2915V1.71261C79.6673 1.26675 79.4904 0.838393 79.1741 0.518586C78.8578 0.198779 78.4269 0.0127388 77.9731 0Z" fill="#F4F4F4"/>
<path d="M65.368 29.7997C65.368 29.7997 65.3182 29.604 64.9695 29.6529H64.7204C64.5586 29.5471 64.4362 29.3926 64.3716 29.2125C64.2716 28.9803 64.2208 28.7306 64.2221 28.4785C64.2221 27.8914 64.1225 25.8362 64.1225 25.8362C64.1225 25.8362 64.1225 25.7384 63.9232 25.7384V22.5089L64.0726 21.3345V19.573C64.1002 19.1646 64.0835 18.7545 64.0228 18.3497L63.7239 17.0774V16.7349L63.9232 16.6371C63.9232 16.6371 64.0228 16.5881 63.973 16.4413C63.9232 16.2945 63.4748 15.1691 63.4748 15.1691C63.408 15.0988 63.3571 15.0154 63.3253 14.9244C63.2265 14.7091 63.1756 14.4756 63.1758 14.2394C63.1758 14.2394 63.4249 14.7776 63.6741 14.8266H64.0726C64.1556 14.7891 64.2295 14.7349 64.2896 14.6674C64.3497 14.6 64.3946 14.5208 64.4214 14.4351C64.4487 14.1732 64.4318 13.9087 64.3716 13.6522C64.337 13.5009 64.2869 13.3533 64.2221 13.2118C63.8041 12.5286 63.4538 11.8077 63.1758 11.0588C63.2287 10.8844 63.2456 10.7015 63.2257 10.5206C63.1758 10.3249 63.2755 9.93341 63.1758 9.73768C63.1142 9.64606 63.064 9.54747 63.0264 9.44407H62.9765C62.9831 9.44407 62.9896 9.4428 62.9956 9.44034C63.0017 9.43788 63.0071 9.43428 63.0118 9.42974C63.0164 9.42519 63.0201 9.41982 63.0226 9.41388C63.0251 9.40794 63.0264 9.40158 63.0264 9.39515C63.0274 9.32676 63.0103 9.25926 62.9765 9.19941C62.9765 9.15048 63.0264 9.00369 63.0264 8.95476C63.0295 8.91705 63.0474 8.88198 63.0762 8.85689V8.66118C63.0762 8.61225 63.2257 8.2208 63.126 8.02507C62.8633 7.62666 62.4518 7.3455 61.9801 7.24214C61.7813 7.21442 61.5787 7.24082 61.3942 7.31848C61.2097 7.39614 61.0504 7.52208 60.9338 7.68254C60.5904 8.14501 60.3215 8.65661 60.1366 9.19941L60.3359 9.05263L60.1366 9.39515L59.8875 9.63981C59.738 9.78661 59.4391 9.68874 59.2896 9.54194C59.3394 9.63981 59.5387 9.88447 59.738 9.88447C59.9373 9.88447 59.4889 10.3248 59.2398 10.3248C59.0991 10.3442 58.9561 10.3091 58.8412 10.227C58.891 10.2759 58.9409 10.4717 59.0405 10.4717C59.1401 10.4717 58.9907 10.6674 58.7914 10.4717C58.805 10.5449 58.8396 10.6128 58.891 10.6674L58.6918 10.8631C58.6619 10.8957 58.6415 10.9357 58.6327 10.9787C58.6239 11.0218 58.6271 11.0663 58.6419 11.1078C58.6287 11.1078 58.616 11.1129 58.6067 11.1221C58.5974 11.1313 58.5921 11.1437 58.5921 11.1567L57.7949 12.1843C57.4025 12.6595 57.0525 13.167 56.7487 13.7011L56.5992 14.0437C56.5585 14.1011 56.5366 14.1694 56.5366 14.2394C56.5366 14.3094 56.5585 14.3777 56.5992 14.4351L57.0476 15.1202C57.2233 15.4403 57.4411 15.7364 57.6953 16.0009L58.7914 17.0774C58.8188 17.1015 58.8543 17.1148 58.891 17.1148C58.9278 17.1148 58.9633 17.1015 58.9907 17.0774L59.1402 16.9306H59.8875V17.1264C59.6819 17.6984 59.5318 18.2882 59.4391 18.8879C59.4395 19.4276 59.4728 19.9669 59.5387 20.5027C59.5886 20.8941 59.6384 21.5791 59.6384 21.5791C59.6942 22.313 59.6775 23.0504 59.5886 23.7811C59.4889 24.8086 59.5387 23.9768 59.3893 25.6894C59.3893 25.7384 59.2896 25.6894 59.2896 25.7384C59.1401 27.6467 59.3394 28.2828 59.3394 28.2828C59.3394 28.2828 59.3893 28.7232 59.4391 28.9679C59.5046 29.1738 59.5382 29.3882 59.5387 29.604V29.8976C59.5671 29.9382 59.604 29.9723 59.647 29.9977C59.69 30.023 59.738 30.0389 59.7879 30.0444H60.2363C60.2495 30.0444 60.2622 30.0392 60.2715 30.03C60.2808 30.0209 60.2861 30.0084 60.2861 29.9954H60.4854C60.663 29.999 60.8373 29.9477 60.9836 29.8486L61.1829 29.7018V29.4082C61.152 29.374 61.1134 29.3473 61.0701 29.3303C61.0269 29.3133 60.9802 29.3065 60.9338 29.3104H60.7843V29.2125C60.6562 28.6501 60.6393 28.0687 60.7345 27.4999C60.7345 27.4999 60.8341 26.2277 60.8341 25.8852H60.7345V25.1022C60.7264 24.9699 60.7433 24.8372 60.7843 24.7108L60.9338 24.1236C61.0288 23.9594 61.0802 23.7743 61.0833 23.5854V22.7535C61.1614 22.3002 61.2113 21.8427 61.2327 21.3834C61.2347 20.99 61.268 20.5974 61.3324 20.2091C61.432 19.8665 61.5317 19.3283 61.5317 19.3283L61.6313 19.1326C61.6313 19.0836 61.6811 19.0836 61.731 19.0836L61.9303 19.1815C62.053 19.4629 62.1368 19.7591 62.1794 20.0623C62.2038 20.3595 62.2538 20.6541 62.3288 20.943C62.4045 21.4623 62.4045 21.9896 62.3288 22.5089C62.3288 22.8514 62.4285 23.9279 62.5281 24.7597C62.6278 25.5916 62.6278 25.4448 62.6776 25.6894C62.7274 25.9341 62.5779 25.7384 62.5779 25.7384L62.7772 27.5488L62.9765 28.8211C62.9765 28.9189 63.0264 29.0168 63.0264 29.1147V29.4572H62.9765C62.9765 29.5061 62.9267 29.555 62.9267 29.604V29.8486C62.9267 29.8486 62.9765 29.9954 63.0762 29.9954H63.4748C63.4748 29.9954 63.5744 29.9954 63.5744 29.9465C63.5744 29.8976 64.0726 30.0444 64.0726 30.0444C64.3667 30.1099 64.6698 30.1264 64.9695 30.0933C65.4179 30.1912 65.368 29.7997 65.368 29.7997ZM60.1864 15.3648C60.0972 15.5524 60.0304 15.7494 59.9872 15.952V16.0499C59.9872 16.0988 59.9871 16.1477 59.8875 16.1477H59.8377C59.7879 16.1967 59.738 16.2456 59.6384 16.1967L59.3394 15.952H59.2398C59.1402 15.9031 59.0903 16.0009 59.0405 16.0009C58.9907 16.0009 58.891 16.0009 58.8412 15.9031C58.7481 15.6146 58.5955 15.3481 58.3928 15.1202L58.2433 14.8755C58.2433 14.8236 58.2223 14.7738 58.185 14.7371C58.1476 14.7004 58.0969 14.6798 58.044 14.6798H57.9444L57.8448 14.5819C57.8051 14.5245 57.7875 14.4552 57.7949 14.3862C57.8207 14.2734 57.8207 14.1564 57.7949 14.0437C57.7949 14.0437 57.7451 13.9947 57.8448 13.8969C57.9444 13.799 57.9444 13.799 57.9444 13.799L58.1437 13.4565C58.2821 13.2396 58.4496 13.0421 58.6419 12.8693L58.9409 12.6246C58.995 12.612 59.0517 12.6145 59.1045 12.6317C59.1573 12.649 59.2042 12.6805 59.2398 12.7225C59.3893 12.9182 59.6882 13.5543 59.738 13.6033C59.7879 13.6522 59.7879 13.7501 59.738 13.799C59.6882 13.8479 59.6882 13.9458 59.738 14.0437L60.1864 14.6309C60.274 14.868 60.274 15.1277 60.1864 15.3648ZM62.7772 10.0802H62.6278L62.4783 9.93339C62.4783 9.88446 62.5779 9.73766 62.5779 9.68873H62.7274C62.7772 9.88446 62.7772 10.0312 62.7772 10.0802Z" fill="#F4F4F4"/>
</g>
<defs>
<clipPath id="clip0_250_2869">
<rect width="155" height="71" fill="white"/>
</clipPath>
</defs>
</svg>
